<?xml version="1.0" encoding="UTF-8" standalone="no"?>
<!-- Created with Inkscape (http://www.inkscape.org/) -->

<svg
   xmlns:dc="http://purl.org/dc/elements/1.1/"
   xmlns:cc="http://creativecommons.org/ns#"
   xmlns:rdf="http://www.w3.org/1999/02/22-rdf-syntax-ns#"
   xmlns:svg="http://www.w3.org/2000/svg"
   xmlns="http://www.w3.org/2000/svg"
   xmlns:xlink="http://www.w3.org/1999/xlink"
   xmlns:sodipodi="http://sodipodi.sourceforge.net/DTD/sodipodi-0.dtd"
   xmlns:inkscape="http://www.inkscape.org/namespaces/inkscape"
   width="744.09448819"
   height="1052.3622047"
   id="svg5051"
   version="1.1"
   inkscape:version="0.48.5 r10040"
   sodipodi:docname="icons.svg"
   inkscape:export-filename="E:\icons.png"
   inkscape:export-xdpi="36.015312"
   inkscape:export-ydpi="36.015312">
  <defs
     id="defs5053" />
  <sodipodi:namedview
     id="base"
     pagecolor="#ffffff"
     bordercolor="#666666"
     borderopacity="1.0"
     inkscape:pageopacity="0.0"
     inkscape:pageshadow="2"
     inkscape:zoom="1.5106125"
     inkscape:cx="433.69978"
     inkscape:cy="50.041238"
     inkscape:document-units="px"
     inkscape:current-layer="layer1"
     showgrid="false"
     inkscape:window-width="1440"
     inkscape:window-height="879"
     inkscape:window-x="1436"
     inkscape:window-y="-4"
     inkscape:window-maximized="1" />
  <metadata
     id="metadata5056">
    <rdf:RDF>
      <cc:Work
         rdf:about="">
        <dc:format>image/svg+xml</dc:format>
        <dc:type
           rdf:resource="http://purl.org/dc/dcmitype/StillImage" />
        <dc:title></dc:title>
      </cc:Work>
    </rdf:RDF>
  </metadata>
  <g
     inkscape:label="Layer 1"
     inkscape:groupmode="layer"
     id="layer1">
    <rect
       inkscape:tile-y0="952.34222"
       inkscape:tile-x0="0.062455468"
       y="952.34222"
       x="0.062455468"
       height="99.957489"
       width="99.957489"
       id="use3996"
       style="fill:none;fill-rule:evenodd;stroke:none;stroke-width:0.04251053000000000px;stroke-linecap:butt;stroke-linejoin:miter;stroke-opacity:1;fill-opacity:1"
       inkscape:tile-cx="50.0412"
       inkscape:tile-cy="1002.321"
       inkscape:tile-w="99.957489"
       inkscape:tile-h="99.957489" />
    <use
       x="0"
       y="0"
       inkscape:tiled-clone-of="#use3996"
       xlink:href="#use3996"
       transform="translate(99.957489,0)"
       id="use4098"
       style="stroke:none;fill:none;fill-opacity:1" />
    <use
       x="0"
       y="0"
       inkscape:tiled-clone-of="#use3996"
       xlink:href="#use3996"
       transform="translate(199.91498,0)"
       id="use4100"
       style="stroke:none;fill:none;fill-opacity:1" />
    <use
       x="0"
       y="0"
       inkscape:tiled-clone-of="#use3996"
       xlink:href="#use3996"
       transform="translate(299.87247,0)"
       id="use4102"
       style="stroke:none;fill:none;fill-opacity:1" />
    <use
       x="0"
       y="0"
       inkscape:tiled-clone-of="#use3996"
       xlink:href="#use3996"
       transform="translate(399.82996,0)"
       id="use4104"
       style="stroke:none;fill:none;fill-opacity:1" />
    <use
       x="0"
       y="0"
       inkscape:tiled-clone-of="#use3996"
       xlink:href="#use3996"
       transform="translate(499.78745,0)"
       id="use4106"
       style="stroke:none;fill:none;fill-opacity:1" />
    <use
       x="0"
       y="0"
       inkscape:tiled-clone-of="#use3996"
       xlink:href="#use3996"
       transform="translate(599.74493,0)"
       id="use4108"
       style="stroke:none;fill:none;fill-opacity:1" />
    <path
       unicode=""
       d="m 492.4673,963.7326 0,77.1764 q 0,1.4252 -1.0413,2.4666 -1.0414,1.0415 -2.4665,1.0415 l -28.0644,0 q -1.4251,0 -2.4665,-1.0415 -1.0414,-1.0414 -1.0414,-2.4666 l 0,-77.1764 q 0,-1.4251 1.0414,-2.4666 1.0414,-1.0413 2.4665,-1.0413 l 28.0644,0 q 1.4251,0 2.4665,1.0413 1.0413,1.0415 1.0413,2.4666 z m -49.1122,0 0,77.1764 q 0,1.4252 -1.0415,2.4666 -1.0413,1.0415 -2.4665,1.0415 l -28.0641,0 q -1.4252,0 -2.4666,-1.0415 -1.0415,-1.0414 -1.0415,-2.4666 l 0,-77.1764 q 0,-1.4251 1.0415,-2.4666 1.0414,-1.0413 2.4666,-1.0413 l 28.0641,0 q 1.4252,0 2.4665,1.0413 1.0415,1.0415 1.0415,2.4666 z"
       id="path3974"
       inkscape:connector-curvature="0" />
    <path
       unicode=""
       horiz-adv-x="1408"
       d="m 387.5888,1004.0201 -72.7914,40.4518 q -1.2607,0.7127 -2.1651,0.1645 -0.9045,-0.5481 -0.9045,-1.9733 l 0,-80.6843 q 0,-1.4252 0.9045,-1.9733 0.9044,-0.5482 2.1651,0.1643 l 72.7914,40.4519 q 1.2607,0.7127 1.2607,1.6991 0,0.9868 -1.2607,1.6993 z"
       id="path3976"
       inkscape:connector-curvature="0" />
    <path
       unicode=""
       horiz-adv-x="1792"
       d="m 178.1881,991.7938 q 0,7.619 -5.1523,14.087 -5.1525,6.4679 -14.0595,10.2225 -8.9071,3.7547 -19.3763,3.7547 -4.7139,0 -9.647,-0.877 -6.7968,4.8234 -15.2379,7.0161 -1.9733,0.4933 -4.714,0.8768 l -0.1643,0 q -0.603,0 -1.1237,-0.4384 -0.5209,-0.4384 -0.6304,-1.151 -0.055,-0.1645 -0.055,-0.3564 0,-0.1918 0.027,-0.3561 0.027,-0.1647 0.1095,-0.329 l 0.1371,-0.274 q 0,0 0.1918,-0.3016 0.1917,-0.3014 0.2193,-0.2741 0.027,0.027 0.2466,-0.274 0.2193,-0.3015 0.2193,-0.2465 0.2741,-0.3289 1.2606,-1.3705 0.9867,-1.0414 1.4252,-1.6169 0.4386,-0.5755 1.2333,-1.5896 0.7948,-1.014 1.3704,-2.1103 0.5755,-1.0962 1.1235,-2.4118 -6.7968,-3.9466 -10.6884,-9.7018 -3.8918,-5.7553 -3.8918,-12.2781 0,-7.6188 5.1524,-14.0868 5.1525,-6.4679 14.0596,-10.2227 8.907,-3.7546 19.3763,-3.7546 10.4691,0 19.3763,3.7546 8.907,3.7548 14.0595,10.2227 5.1523,6.468 5.1523,14.0868 z m 21.0482,14.0321 q 0,6.5775 -3.8917,12.3055 -3.8916,5.7279 -10.6885,9.6744 0.5481,1.3155 1.1236,2.4118 0.5756,1.0961 1.3703,2.1102 0.7948,1.014 1.2334,1.5897 0.4384,0.5754 1.4252,1.6169 0.9865,1.0415 1.2606,1.3703 0.055,0.055 0.2192,0.2467 0.1646,0.1918 0.2467,0.2741 0.081,0.082 0.2194,0.2741 0.1369,0.1918 0.1917,0.3015 l 0.1371,0.2741 q 0,0 0.1095,0.3287 0.1096,0.3289 0.027,0.3563 -0.081,0.027 -0.055,0.3563 -0.1644,0.7674 -0.7125,1.2058 -0.5482,0.4386 -1.2059,0.3838 -2.7406,-0.3838 -4.7139,-0.877 -8.4412,-2.1927 -15.2379,-7.0161 -4.9331,0.877 -9.6471,0.877 -14.8542,0 -25.8716,-7.2353 3.1793,0.2192 4.8236,0.2192 8.8247,0 16.937,-2.4666 8.1123,-2.4665 14.4706,-7.0707 6.8516,-5.0427 10.5242,-11.6204 3.6723,-6.5775 3.6723,-13.9224 0,-4.2206 -1.2607,-8.3315 7.0709,3.8917 11.1819,9.7566 4.1109,5.8651 4.1109,12.607 z"
       id="path3978"
       inkscape:connector-curvature="0" />
    <path
       unicode=""
       horiz-adv-x="1664"
       d="m 246.6981,972.5028 0,59.6362 q 0,1.4252 -1.0416,2.4665 -1.0414,1.0416 -2.4665,1.0416 -1.425,0 -2.4666,-1.0416 l -18.2526,-18.2526 -14.361,0 q -1.4251,0 -2.4665,-1.0413 -1.0415,-1.0415 -1.0415,-2.4666 l 0,-21.0481 q 0,-1.4251 1.0415,-2.4666 1.0414,-1.0415 2.4665,-1.0415 l 14.361,0 18.2526,-18.2527 q 1.0416,-1.0414 2.4666,-1.0414 1.4251,0 2.4665,1.0414 1.0416,1.0415 1.0416,2.4667 z m 21.048,29.8182 q 0,4.1657 -2.3294,7.7559 -2.3296,3.5902 -6.1665,5.1251 -0.5481,0.274 -1.3703,0.274 -1.425,0 -2.4666,-1.0141 -1.0415,-1.014 -1.0415,-2.4939 0,-1.1511 0.6579,-1.946 0.6577,-0.7946 1.5894,-1.3702 0.9319,-0.5755 1.8639,-1.2606 0.9316,-0.6853 1.5893,-1.9461 0.6579,-1.2606 0.6579,-3.1241 0,-1.8638 -0.6579,-3.1244 -0.6577,-1.2608 -1.5893,-1.9459 -0.932,-0.6852 -1.8639,-1.2607 -0.9317,-0.5754 -1.5894,-1.3704 -0.6579,-0.7947 -0.6579,-1.9458 0,-1.4798 1.0415,-2.4939 1.0416,-1.014 2.4666,-1.014 0.8222,0 1.3703,0.274 3.8369,1.4801 6.1665,5.0976 2.3294,3.6176 2.3294,7.7835 z m 14.0321,0 q 0,8.3863 -4.6589,15.4844 -4.6593,7.0983 -12.333,10.3323 -0.7126,0.2741 -1.3703,0.2741 -1.4799,0 -2.5215,-1.0414 -1.0413,-1.0415 -1.0413,-2.4667 0,-2.1375 2.1376,-3.234 3.0696,-1.5894 4.1658,-2.4116 4.0563,-2.9599 6.3309,-7.4271 2.2747,-4.4673 2.2747,-9.51 0,-5.0429 -2.2747,-9.51 -2.2746,-4.4673 -6.3309,-7.4273 -1.0962,-0.8221 -4.1658,-2.4117 -2.1376,-1.0963 -2.1376,-3.2339 0,-1.4252 1.0413,-2.4666 1.0416,-1.0415 2.4667,-1.0415 0.7125,0 1.4251,0.2741 7.6737,3.234 12.333,10.3322 4.6589,7.0983 4.6589,15.4847 z m 14.0321,0 q 0,12.6068 -6.9611,23.1583 -6.9613,10.5514 -18.5269,15.5394 -0.7124,0.2741 -1.4251,0.2741 -1.4251,0 -2.4665,-1.0414 -1.0414,-1.0416 -1.0414,-2.4668 0,-1.9731 2.1376,-3.2339 0.3838,-0.2192 1.2333,-0.5755 0.8497,-0.3561 1.2332,-0.5756 2.5215,-1.3702 4.4947,-2.7953 6.742,-4.988 10.524,-12.4425 3.7822,-7.4545 3.7822,-15.8408 0,-8.3864 -3.7822,-15.8409 -3.782,-7.4547 -10.524,-12.4426 -1.9732,-1.4252 -4.4947,-2.7955 -0.3835,-0.2192 -1.2332,-0.5754 -0.8495,-0.3563 -1.2333,-0.5757 -2.1376,-1.2606 -2.1376,-3.2339 0,-1.4252 1.0414,-2.4665 1.0414,-1.0416 2.4665,-1.0416 0.7127,0 1.4251,0.2741 11.5656,4.988 18.5269,15.5395 6.9611,10.5514 6.9611,23.1585 z"
       id="path3982"
       inkscape:connector-curvature="0" />
    <path
       unicode=""
       horiz-adv-x="1408"
       d="m 589.0418,997.0588 0,10.5242 q 0,2.1925 -1.5349,3.7272 -1.5346,1.5349 -3.7272,1.5349 l -22.802,0 0,22.802 q 0,2.1925 -1.5348,3.7271 -1.5348,1.5349 -3.7273,1.5349 l -10.5241,0 q -2.1925,0 -3.7272,-1.5349 -1.5349,-1.5346 -1.5349,-3.7271 l 0,-22.802 -22.8019,0 q -2.1926,0 -3.7273,-1.5349 -1.5348,-1.5347 -1.5348,-3.7272 l 0,-10.5242 q 0,-2.1925 1.5348,-3.7271 1.5347,-1.5348 3.7273,-1.5348 l 22.8019,0 0,-22.8021 q 0,-2.1926 1.5349,-3.7273 1.5347,-1.5348 3.7272,-1.5348 l 10.5241,0 q 2.1925,0 3.7273,1.5348 1.5348,1.5347 1.5348,3.7273 l 0,22.8021 22.802,0 q 2.1926,0 3.7272,1.5348 1.5349,1.5346 1.5349,3.7271 z"
       id="path3984"
       inkscape:connector-curvature="0" />
    <path
       unicode=""
       horiz-adv-x="1408"
       d="m 689.1244,997.059 0,10.5239 q 0,2.1926 -1.5349,3.7273 -1.5347,1.5347 -3.7272,1.5347 l -66.6523,0 q -2.1925,0 -3.7273,-1.5347 -1.5347,-1.5347 -1.5347,-3.7273 l 0,-10.5239 q 0,-2.1926 1.5347,-3.7273 1.5348,-1.5348 3.7273,-1.5348 l 66.6523,0 q 2.1925,0 3.7272,1.5348 1.5349,1.5347 1.5349,3.7273 z"
       id="path3986"
       inkscape:connector-curvature="0" />
    <path
       unicode=""
       d="m 92.1374,1026.8769 0,7.0161 q 0,1.4252 -1.0413,2.4667 -1.0416,1.0413 -2.4665,1.0413 l -77.1765,0 q -1.4251,0 -2.4667,-1.0413 -1.0414,-1.0415 -1.0414,-2.4667 l 0,-7.0161 q 0,-1.4249 1.0414,-2.4665 1.0416,-1.0415 2.4667,-1.0415 l 77.1765,0 q 1.4249,0 2.4665,1.0415 1.0413,1.0416 1.0413,2.4665 z m 0,-28.064 0,7.016 q 0,1.4251 -1.0413,2.4666 -1.0416,1.0414 -2.4665,1.0414 l -77.1765,0 q -1.4251,0 -2.4667,-1.0414 -1.0414,-1.0415 -1.0414,-2.4666 l 0,-7.016 q 0,-1.4252 1.0414,-2.4666 1.0416,-1.0414 2.4667,-1.0414 l 77.1765,0 q 1.4249,0 2.4665,1.0414 1.0413,1.0414 1.0413,2.4666 z m 0,-28.0641 0,7.016 q 0,1.4251 -1.0413,2.4666 -1.0416,1.0413 -2.4665,1.0413 l -77.1765,0 q -1.4251,0 -2.4667,-1.0413 -1.0414,-1.0415 -1.0414,-2.4666 l 0,-7.016 q 0,-1.4251 1.0414,-2.4667 1.0416,-1.0414 2.4667,-1.0414 l 77.1765,0 q 1.4249,0 2.4665,1.0414 1.0413,1.0416 1.0413,2.4667 z"
       id="path3988"
       inkscape:connector-curvature="0" />
    <path unicode="&#xf061;" d="M1472 576q0 -54 -37 -91l-651 -651q-39 -37 -91 -37q-51 0 -90 37l-75 75q-38 38 -38 91t38 91l293 293h-704q-52 0 -84.5 37.5t-32.5 90.5v128q0 53 32.5 90.5t84.5 37.5h704l-293 294q-38 36 -38 90t38 90l75 75q38 38 90 38q53 0 91 -38l651 -651q37 -35 37 -90z" />    
  </g>
</svg>
