<?xml version="1.0" encoding="UTF-8" standalone="no"?>
<!-- Created with Inkscape (http://www.inkscape.org/) -->

<svg
   xmlns:dc="http://purl.org/dc/elements/1.1/"
   xmlns:cc="http://creativecommons.org/ns#"
   xmlns:rdf="http://www.w3.org/1999/02/22-rdf-syntax-ns#"
   xmlns:svg="http://www.w3.org/2000/svg"
   xmlns="http://www.w3.org/2000/svg"
   xmlns:xlink="http://www.w3.org/1999/xlink"
   xmlns:sodipodi="http://sodipodi.sourceforge.net/DTD/sodipodi-0.dtd"
   xmlns:inkscape="http://www.inkscape.org/namespaces/inkscape"
   width="744.09448819"
   height="1052.3622047"
   id="svg5051"
   version="1.1"
   inkscape:version="0.48.5 r10040"
   sodipodi:docname="icons.svg"
   inkscape:export-filename="E:\icons.png"
   inkscape:export-xdpi="36.015312"
   inkscape:export-ydpi="36.015312">
  <defs
     id="defs5053" />
  <sodipodi:namedview
     id="base"
     pagecolor="#ffffff"
     bordercolor="#666666"
     borderopacity="1.0"
     inkscape:pageopacity="0"
     inkscape:pageshadow="2"
     inkscape:zoom="1.1602475"
     inkscape:cx="522.39152"
     inkscape:cy="31.830308"
     inkscape:document-units="px"
     inkscape:current-layer="layer1"
     showgrid="false"
     inkscape:window-width="1858"
     inkscape:window-height="1058"
     inkscape:window-x="-8"
     inkscape:window-y="-8"
     inkscape:window-maximized="1" />
  <metadata
     id="metadata5056">
    <rdf:RDF>
      <cc:Work
         rdf:about="">
        <dc:format>image/svg+xml</dc:format>
        <dc:type
           rdf:resource="http://purl.org/dc/dcmitype/StillImage" />
        <dc:title></dc:title>
      </cc:Work>
    </rdf:RDF>
  </metadata>
  <g
     inkscape:label="Layer 1"
     inkscape:groupmode="layer"
     id="layer1">
    <g
       id="g4992"
       inkscape:export-filename="C:\xds\demo\src\icons\pause.png"
       inkscape:export-xdpi="36.02"
       inkscape:export-ydpi="36.02">
      <use
         style="fill:none;stroke:none"
         id="use4104"
         transform="translate(399.82996,0)"
         xlink:href="#use3996"
         inkscape:tiled-clone-of="#use3996"
         y="0"
         x="0"
         width="744.09448"
         height="1052.3622" />
      <path
         style="fill:#ffffff;fill-opacity:1"
         inkscape:connector-curvature="0"
         id="path3974"
         d="m 465.21,967.61109 0,77.17641 q 0,1.4252 -1.0413,2.4666 -1.0414,1.0415 -2.4665,1.0415 l -28.0644,0 q -1.4251,0 -2.4665,-1.0415 -1.0414,-1.0414 -1.0414,-2.4666 l 0,-77.17641 q 0,-1.4251 1.0414,-2.4666 1.0414,-1.0413 2.4665,-1.0413 l 28.0644,0 q 1.4251,0 2.4665,1.0413 1.0413,1.0415 1.0413,2.4666 z m -49.11221,0 0,77.17641 q 0,1.4252 -1.0415,2.4666 -1.04129,1.0415 -2.4665,1.0415 l -28.0641,0 q -1.4252,0 -2.4666,-1.0415 -1.0415,-1.0414 -1.0415,-2.4666 l 0,-77.17641 q 0,-1.4251 1.0415,-2.4666 1.0414,-1.0413 2.4666,-1.0413 l 28.0641,0 q 1.42521,0 2.4665,1.0413 1.0415,1.0415 1.0415,2.4666 z"
         unicode="" />
    </g>
    <g
       id="g4996"
       inkscape:export-filename="C:\xds\demo\src\icons\play.png"
       inkscape:export-xdpi="36.02"
       inkscape:export-ydpi="36.02">
      <use
         style="fill:none;stroke:none"
         id="use4102"
         transform="translate(299.87247,0)"
         xlink:href="#use3996"
         inkscape:tiled-clone-of="#use3996"
         y="0"
         x="0"
         width="744.09448"
         height="1052.3622" />
      <path
         style="fill:#ffffff;fill-opacity:1"
         inkscape:connector-curvature="0"
         id="path3976"
         d="m 360.33149,1007.8986 -72.7914,40.4518 q -1.2607,0.7127 -2.1651,0.1645 -0.9045,-0.5481 -0.9045,-1.9733 l 0,-80.68431 q 0,-1.4252 0.9045,-1.9733 0.9044,-0.5482 2.1651,0.1643 l 72.7914,40.45191 q 1.2607,0.7127 1.2607,1.6991 0,0.9868 -1.2607,1.6993 z"
         horiz-adv-x="1408"
         unicode="" />
    </g>
    <g
       id="g5004">
      <use
         style="fill:none;stroke:none"
         id="use4098"
         transform="translate(99.957489,0)"
         xlink:href="#use3996"
         inkscape:tiled-clone-of="#use3996"
         y="0"
         x="0"
         width="744.09448"
         height="1052.3622" />
      <path
         style="fill:#ffffff;fill-opacity:1"
         inkscape:connector-curvature="0"
         id="path3978"
         d="m 150.93079,995.67229 q 0,7.61901 -5.1523,14.08701 -5.1525,6.4679 -14.0595,10.2225 -8.9071,3.7547 -19.3763,3.7547 -4.7139,0 -9.647,-0.877 -6.796805,4.8234 -15.2379,7.0161 -1.9733,0.4933 -4.714,0.8768 l -0.1643,0 q -0.603,0 -1.1237,-0.4384 -0.5209,-0.4384 -0.6304,-1.151 -0.055,-0.1645 -0.055,-0.3564 0,-0.1918 0.027,-0.3561 0.027,-0.1647 0.1095,-0.329 l 0.1371,-0.274 q 0,0 0.1918,-0.3016 0.1917,-0.3014 0.2193,-0.2741 0.027,0.027 0.2466,-0.274 0.219301,-0.3015 0.219301,-0.2465 0.2741,-0.3289 1.260599,-1.3705 0.9867,-1.0414 1.425201,-1.6169 0.438599,-0.5755 1.2333,-1.5896 0.794799,-1.014 1.3704,-2.1103 0.5755,-1.0962 1.1235,-2.4118 -6.7968,-3.9466 -10.6884,-9.7018 -3.8918,-5.7553 -3.8918,-12.27811 0,-7.6188 5.1524,-14.0868 5.1525,-6.4679 14.059595,-10.2227 8.907004,-3.7546 19.376304,-3.7546 10.4691,0 19.37631,3.7546 8.907,3.7548 14.0595,10.2227 5.1523,6.468 5.1523,14.0868 z m 21.0482,14.03211 q 0,6.5775 -3.8917,12.3055 -3.8916,5.7279 -10.6885,9.6744 0.5481,1.3155 1.12361,2.4118 0.5756,1.0961 1.37029,2.1102 0.7948,1.014 1.2334,1.5897 0.4384,0.5754 1.4252,1.6169 0.9865,1.0415 1.2606,1.3703 0.055,0.055 0.2192,0.2467 0.1646,0.1918 0.2467,0.2741 0.081,0.082 0.2194,0.2741 0.1369,0.1918 0.1917,0.3015 l 0.1371,0.2741 q 0,0 0.1095,0.3287 0.1096,0.3289 0.027,0.3563 -0.081,0.027 -0.055,0.3563 -0.1644,0.7674 -0.7125,1.2058 -0.5482,0.4386 -1.2059,0.3838 -2.7406,-0.3838 -4.7139,-0.877 -8.4412,-2.1927 -15.2379,-7.0161 -4.9331,0.877 -9.6471,0.877 -14.8542,0 -25.8716,-7.2353 3.1793,0.2192 4.8236,0.2192 8.8247,0 16.937,-2.4666 8.1123,-2.4665 14.4706,-7.0707 6.8516,-5.0427 10.5242,-11.6204 3.6723,-6.5775 3.6723,-13.92241 0,-4.2206 -1.2607,-8.3315 7.0709,3.8917 11.18191,9.7566 4.11089,5.86511 4.11089,12.60701 z"
         horiz-adv-x="1792"
         unicode="" />
    </g>
    <g
       id="g5000">
      <use
         style="fill:none;stroke:none"
         id="use4100"
         transform="translate(199.91498,0)"
         xlink:href="#use3996"
         inkscape:tiled-clone-of="#use3996"
         y="0"
         x="0"
         width="744.09448"
         height="1052.3622" />
      <path
         style="fill:#ffffff;fill-opacity:1"
         inkscape:connector-curvature="0"
         id="path3982"
         d="m 219.44079,976.38129 0,59.63621 q 0,1.4252 -1.04159,2.4665 -1.04141,1.0416 -2.4665,1.0416 -1.42501,0 -2.4666,-1.0416 l -18.2526,-18.2526 -14.361,0 q -1.4251,0 -2.4665,-1.0413 -1.0415,-1.0415 -1.0415,-2.4666 l 0,-21.04811 q 0,-1.4251 1.0415,-2.4666 1.0414,-1.0415 2.4665,-1.0415 l 14.361,0 18.2526,-18.2527 q 1.04159,-1.0414 2.4666,-1.0414 1.42509,0 2.4665,1.0414 1.04159,1.0415 1.04159,2.4667 z m 21.048,29.81821 q 0,4.1657 -2.3294,7.7559 -2.3296,3.5902 -6.1665,5.1251 -0.54809,0.274 -1.37029,0.274 -1.42501,0 -2.4666,-1.0141 -1.04151,-1.014 -1.04151,-2.4939 0,-1.1511 0.65791,-1.946 0.6577,-0.7946 1.58939,-1.3702 0.9319,-0.5755 1.8639,-1.2606 0.9316,-0.6853 1.5893,-1.9461 0.6579,-1.2606 0.6579,-3.1241 0,-1.8638 -0.6579,-3.1244 -0.6577,-1.2608 -1.5893,-1.9459 -0.932,-0.6852 -1.8639,-1.26071 -0.9317,-0.5754 -1.5894,-1.3704 -0.6579,-0.7947 -0.6579,-1.9458 0,-1.4798 1.0415,-2.4939 1.0416,-1.014 2.46661,-1.014 0.8222,0 1.37029,0.274 3.83691,1.4801 6.1665,5.0976 2.3294,3.61761 2.3294,7.78351 z m 14.03211,0 q 0,8.3863 -4.65891,15.4844 -4.65929,7.0983 -12.333,10.3323 -0.7126,0.2741 -1.3703,0.2741 -1.4799,0 -2.5215,-1.0414 -1.0413,-1.0415 -1.0413,-2.4667 0,-2.1375 2.13761,-3.234 3.06959,-1.5894 4.1658,-2.4116 4.0563,-2.9599 6.33089,-7.4271 2.2747,-4.4673 2.2747,-9.51 0,-5.0429 -2.2747,-9.51001 -2.2746,-4.4673 -6.33089,-7.4273 -1.09621,-0.8221 -4.1658,-2.4117 -2.13761,-1.0963 -2.13761,-3.2339 0,-1.4252 1.0413,-2.4666 1.0416,-1.0415 2.4667,-1.0415 0.7125,0 1.4251,0.2741 7.6737,3.234 12.333,10.3322 4.65891,7.0983 4.65891,15.48471 z m 14.0321,0 q 0,12.6068 -6.9611,23.1583 -6.9613,10.5514 -18.5269,15.5394 -0.7124,0.2741 -1.4251,0.2741 -1.4251,0 -2.4665,-1.0414 -1.0414,-1.0416 -1.0414,-2.4668 0,-1.9731 2.1376,-3.2339 0.3838,-0.2192 1.2333,-0.5755 0.8497,-0.3561 1.2332,-0.5756 2.5215,-1.3702 4.4947,-2.7953 6.742,-4.988 10.524,-12.4425 3.7822,-7.4545 3.7822,-15.8408 0,-8.38641 -3.7822,-15.84091 -3.782,-7.4547 -10.524,-12.4426 -1.9732,-1.4252 -4.4947,-2.7955 -0.3835,-0.2192 -1.2332,-0.5754 -0.8495,-0.3563 -1.2333,-0.5757 -2.1376,-1.2606 -2.1376,-3.2339 0,-1.4252 1.0414,-2.4665 1.0414,-1.0416 2.4665,-1.0416 0.7127,0 1.4251,0.2741 11.5656,4.988 18.5269,15.5395 6.9611,10.5514 6.9611,23.15851 z"
         horiz-adv-x="1664"
         unicode="" />
    </g>
    <g
       id="g4988"
       inkscape:export-filename="C:\xds\demo\src\icons\plus.png"
       inkscape:export-xdpi="36.02"
       inkscape:export-ydpi="36.02">
      <use
         style="fill:none;stroke:none"
         id="use4106"
         transform="translate(499.78745,0)"
         xlink:href="#use3996"
         inkscape:tiled-clone-of="#use3996"
         y="0"
         x="0"
         width="744.09448"
         height="1052.3622" />
      <path
         style="fill:#ffffff;fill-opacity:1"
         inkscape:connector-curvature="0"
         id="path3984"
         d="m 561.7845,1000.9373 0,10.5242 q 0,2.1925 -1.5349,3.7272 -1.5346,1.5349 -3.72721,1.5349 l -22.802,0 0,22.802 q 0,2.1925 -1.5348,3.7271 -1.5348,1.5349 -3.7273,1.5349 l -10.5241,0 q -2.1925,0 -3.7272,-1.5349 -1.5349,-1.5346 -1.5349,-3.7271 l 0,-22.802 -22.8019,0 q -2.1926,0 -3.7273,-1.5349 -1.5348,-1.5347 -1.5348,-3.7272 l 0,-10.5242 q 0,-2.19251 1.5348,-3.72711 1.5347,-1.5348 3.7273,-1.5348 l 22.8019,0 0,-22.8021 q 0,-2.1926 1.5349,-3.7273 1.5347,-1.5348 3.7272,-1.5348 l 10.5241,0 q 2.1925,0 3.7273,1.5348 1.5348,1.5347 1.5348,3.7273 l 0,22.8021 22.802,0 q 2.1926,0 3.72721,1.5348 1.5349,1.5346 1.5349,3.72711 z"
         horiz-adv-x="1408"
         unicode="" />
    </g>
    <g
       id="g4984"
       inkscape:export-filename="C:\xds\demo\src\icons\minus.png"
       inkscape:export-xdpi="36.02"
       inkscape:export-ydpi="36.02">
      <use
         style="fill:none;stroke:none"
         id="use4108"
         transform="translate(599.74493,0)"
         xlink:href="#use3996"
         inkscape:tiled-clone-of="#use3996"
         y="0"
         x="0"
         width="744.09448"
         height="1052.3622" />
      <path
         style="fill:#ffffff;fill-opacity:1"
         inkscape:connector-curvature="0"
         id="path3986"
         d="m 661.8671,1000.9375 0,10.5239 q 0,2.1926 -1.5349,3.7273 -1.5347,1.5347 -3.7272,1.5347 l -66.6523,0 q -2.1925,0 -3.7273,-1.5347 -1.5347,-1.5347 -1.5347,-3.7273 l 0,-10.5239 q 0,-2.19261 1.5347,-3.72731 1.5348,-1.5348 3.7273,-1.5348 l 66.6523,0 q 2.1925,0 3.7272,1.5348 1.5349,1.5347 1.5349,3.72731 z"
         horiz-adv-x="1408"
         unicode="" />
    </g>
    <g
       id="g5008">
      <rect
         inkscape:tile-h="99.957489"
         inkscape:tile-w="99.957489"
         inkscape:tile-cy="1002.321"
         inkscape:tile-cx="50.0412"
         style="fill:none;stroke:none"
         id="use3996"
         width="99.957489"
         height="99.957489"
         x="-27.194853"
         y="956.2207"
         inkscape:tile-x0="0.062455468"
         inkscape:tile-y0="952.34222" />
      <path
         style="fill:#ffffff;fill-opacity:1"
         inkscape:connector-curvature="0"
         id="path3988"
         d="m 64.88009,1030.7554 0,7.0161 q 0,1.4252 -1.0413,2.4667 -1.0416,1.0413 -2.4665,1.0413 l -77.1765,0 q -1.4251,0 -2.4667,-1.0413 -1.0414,-1.0415 -1.0414,-2.4667 l 0,-7.0161 q 0,-1.4249 1.0414,-2.4665 1.0416,-1.0415 2.4667,-1.0415 l 77.1765,0 q 1.4249,0 2.4665,1.0415 1.0413,1.0416 1.0413,2.4665 z m 0,-28.064 0,7.016 q 0,1.4251 -1.0413,2.4666 -1.0416,1.0414 -2.4665,1.0414 l -77.1765,0 q -1.4251,0 -2.4667,-1.0414 -1.0414,-1.0415 -1.0414,-2.4666 l 0,-7.016 q 0,-1.4252 1.0414,-2.4666 1.0416,-1.04141 2.4667,-1.04141 l 77.1765,0 q 1.4249,0 2.4665,1.04141 1.0413,1.0414 1.0413,2.4666 z m 0,-28.06411 0,7.016 q 0,1.4251 -1.0413,2.4666 -1.0416,1.0413 -2.4665,1.0413 l -77.1765,0 q -1.4251,0 -2.4667,-1.0413 -1.0414,-1.0415 -1.0414,-2.4666 l 0,-7.016 q 0,-1.4251 1.0414,-2.4667 1.0416,-1.0414 2.4667,-1.0414 l 77.1765,0 q 1.4249,0 2.4665,1.0414 1.0413,1.0416 1.0413,2.4667 z"
         unicode="" />
    </g>
    <g
       id="g4980"
       inkscape:export-filename="C:\xds\demo\src\icons\next.png"
       inkscape:export-xdpi="36.02"
       inkscape:export-ydpi="36.02">
      <path
         style="fill:#ffffff;fill-opacity:1"
         inkscape:connector-curvature="0"
         id="path4896"
         d="m 771.43046,997.14978 q 0,-2.7778 -1.9032,-4.681 L 736.0413,958.98277 q -2.00611,-1.90319 -4.68086,-1.90319 -2.62334,0 -4.6294,1.90319 l -3.85786,3.85784 q -1.9546,1.95463 -1.9546,4.68083 0,2.72621 1.9546,4.68084 l 15.07131,15.07127 h -36.21221 q -2.6748,0 -4.34652,1.9289 -1.67171,1.92893 -1.67171,4.65513 v 6.58422 q 0,2.7262 1.67171,4.6551 1.67172,1.9289 4.34652,1.9289 h 36.21221 l -15.07131,15.1227 q -1.9546,1.8518 -1.9546,4.6294 0,2.7777 1.9546,4.6294 l 3.85786,3.8578 q 1.95465,1.9547 4.6294,1.9547 2.7262,0 4.68086,-1.9547 l 33.48596,-33.486 q 1.9032,-1.80032 1.9032,-4.62932 z"
         unicode="" />
      <use
         height="1052.3622"
         width="744.09448"
         x="0"
         y="0"
         inkscape:tiled-clone-of="#use3996"
         xlink:href="#use3996"
         transform="translate(710.78836,-9.0497934)"
         id="use4898"
         style="fill:#ff7474;fill-opacity:1;stroke:#000000;stroke-opacity:1" />
    </g>
    <g
       id="g5012"
       transform="translate(-5.1713105,123.24957)"
       style="fill:#cd8080;fill-opacity:1">
      <use
         height="1052.3622"
         width="744.09448"
         x="0"
         y="0"
         inkscape:tiled-clone-of="#use3996"
         xlink:href="#use3996"
         transform="translate(399.82996,0)"
         id="use5014"
         style="fill:#cd8080;stroke:none;fill-opacity:1" />
      <path
         unicode=""
         d="m 465.21,967.61109 0,77.17641 q 0,1.4252 -1.0413,2.4666 -1.0414,1.0415 -2.4665,1.0415 l -28.0644,0 q -1.4251,0 -2.4665,-1.0415 -1.0414,-1.0414 -1.0414,-2.4666 l 0,-77.17641 q 0,-1.4251 1.0414,-2.4666 1.0414,-1.0413 2.4665,-1.0413 l 28.0644,0 q 1.4251,0 2.4665,1.0413 1.0413,1.0415 1.0413,2.4666 z m -49.11221,0 0,77.17641 q 0,1.4252 -1.0415,2.4666 -1.04129,1.0415 -2.4665,1.0415 l -28.0641,0 q -1.4252,0 -2.4666,-1.0415 -1.0415,-1.0414 -1.0415,-2.4666 l 0,-77.17641 q 0,-1.4251 1.0415,-2.4666 1.0414,-1.0413 2.4666,-1.0413 l 28.0641,0 q 1.42521,0 2.4665,1.0413 1.0415,1.0415 1.0415,2.4666 z"
         id="path5016"
         inkscape:connector-curvature="0"
         style="fill:#cd8080;fill-opacity:1" />
    </g>
    <g
       id="g5018"
       transform="translate(-5.1713105,123.24957)"
       style="fill:#cd8080;fill-opacity:1">
      <use
         height="1052.3622"
         width="744.09448"
         x="0"
         y="0"
         inkscape:tiled-clone-of="#use3996"
         xlink:href="#use3996"
         transform="translate(299.87247,0)"
         id="use5020"
         style="fill:#cd8080;stroke:none;fill-opacity:1" />
      <path
         unicode=""
         horiz-adv-x="1408"
         d="m 360.33149,1007.8986 -72.7914,40.4518 q -1.2607,0.7127 -2.1651,0.1645 -0.9045,-0.5481 -0.9045,-1.9733 l 0,-80.68431 q 0,-1.4252 0.9045,-1.9733 0.9044,-0.5482 2.1651,0.1643 l 72.7914,40.45191 q 1.2607,0.7127 1.2607,1.6991 0,0.9868 -1.2607,1.6993 z"
         id="path5022"
         inkscape:connector-curvature="0"
         style="fill:#cd8080;fill-opacity:1" />
    </g>
    <g
       id="g5024"
       transform="translate(-5.1713105,123.24957)"
       style="fill:#cd8080;fill-opacity:1">
      <use
         height="1052.3622"
         width="744.09448"
         x="0"
         y="0"
         inkscape:tiled-clone-of="#use3996"
         xlink:href="#use3996"
         transform="translate(99.957489,0)"
         id="use5026"
         style="fill:#cd8080;stroke:none;fill-opacity:1" />
      <path
         unicode=""
         horiz-adv-x="1792"
         d="m 150.93079,995.67229 q 0,7.61901 -5.1523,14.08701 -5.1525,6.4679 -14.0595,10.2225 -8.9071,3.7547 -19.3763,3.7547 -4.7139,0 -9.647,-0.877 -6.796805,4.8234 -15.2379,7.0161 -1.9733,0.4933 -4.714,0.8768 l -0.1643,0 q -0.603,0 -1.1237,-0.4384 -0.5209,-0.4384 -0.6304,-1.151 -0.055,-0.1645 -0.055,-0.3564 0,-0.1918 0.027,-0.3561 0.027,-0.1647 0.1095,-0.329 l 0.1371,-0.274 q 0,0 0.1918,-0.3016 0.1917,-0.3014 0.2193,-0.2741 0.027,0.027 0.2466,-0.274 0.219301,-0.3015 0.219301,-0.2465 0.2741,-0.3289 1.260599,-1.3705 0.9867,-1.0414 1.425201,-1.6169 0.438599,-0.5755 1.2333,-1.5896 0.794799,-1.014 1.3704,-2.1103 0.5755,-1.0962 1.1235,-2.4118 -6.7968,-3.9466 -10.6884,-9.7018 -3.8918,-5.7553 -3.8918,-12.27811 0,-7.6188 5.1524,-14.0868 5.1525,-6.4679 14.059595,-10.2227 8.907004,-3.7546 19.376304,-3.7546 10.4691,0 19.37631,3.7546 8.907,3.7548 14.0595,10.2227 5.1523,6.468 5.1523,14.0868 z m 21.0482,14.03211 q 0,6.5775 -3.8917,12.3055 -3.8916,5.7279 -10.6885,9.6744 0.5481,1.3155 1.12361,2.4118 0.5756,1.0961 1.37029,2.1102 0.7948,1.014 1.2334,1.5897 0.4384,0.5754 1.4252,1.6169 0.9865,1.0415 1.2606,1.3703 0.055,0.055 0.2192,0.2467 0.1646,0.1918 0.2467,0.2741 0.081,0.082 0.2194,0.2741 0.1369,0.1918 0.1917,0.3015 l 0.1371,0.2741 q 0,0 0.1095,0.3287 0.1096,0.3289 0.027,0.3563 -0.081,0.027 -0.055,0.3563 -0.1644,0.7674 -0.7125,1.2058 -0.5482,0.4386 -1.2059,0.3838 -2.7406,-0.3838 -4.7139,-0.877 -8.4412,-2.1927 -15.2379,-7.0161 -4.9331,0.877 -9.6471,0.877 -14.8542,0 -25.8716,-7.2353 3.1793,0.2192 4.8236,0.2192 8.8247,0 16.937,-2.4666 8.1123,-2.4665 14.4706,-7.0707 6.8516,-5.0427 10.5242,-11.6204 3.6723,-6.5775 3.6723,-13.92241 0,-4.2206 -1.2607,-8.3315 7.0709,3.8917 11.18191,9.7566 4.11089,5.86511 4.11089,12.60701 z"
         id="path5028"
         inkscape:connector-curvature="0"
         style="fill:#cd8080;fill-opacity:1" />
    </g>
    <g
       id="g5030"
       transform="translate(-5.1713105,123.24957)"
       style="fill:#cd8080;fill-opacity:1">
      <use
         height="1052.3622"
         width="744.09448"
         x="0"
         y="0"
         inkscape:tiled-clone-of="#use3996"
         xlink:href="#use3996"
         transform="translate(199.91498,0)"
         id="use5032"
         style="fill:#cd8080;stroke:none;fill-opacity:1" />
      <path
         unicode=""
         horiz-adv-x="1664"
         d="m 219.44079,976.38129 0,59.63621 q 0,1.4252 -1.04159,2.4665 -1.04141,1.0416 -2.4665,1.0416 -1.42501,0 -2.4666,-1.0416 l -18.2526,-18.2526 -14.361,0 q -1.4251,0 -2.4665,-1.0413 -1.0415,-1.0415 -1.0415,-2.4666 l 0,-21.04811 q 0,-1.4251 1.0415,-2.4666 1.0414,-1.0415 2.4665,-1.0415 l 14.361,0 18.2526,-18.2527 q 1.04159,-1.0414 2.4666,-1.0414 1.42509,0 2.4665,1.0414 1.04159,1.0415 1.04159,2.4667 z m 21.048,29.81821 q 0,4.1657 -2.3294,7.7559 -2.3296,3.5902 -6.1665,5.1251 -0.54809,0.274 -1.37029,0.274 -1.42501,0 -2.4666,-1.0141 -1.04151,-1.014 -1.04151,-2.4939 0,-1.1511 0.65791,-1.946 0.6577,-0.7946 1.58939,-1.3702 0.9319,-0.5755 1.8639,-1.2606 0.9316,-0.6853 1.5893,-1.9461 0.6579,-1.2606 0.6579,-3.1241 0,-1.8638 -0.6579,-3.1244 -0.6577,-1.2608 -1.5893,-1.9459 -0.932,-0.6852 -1.8639,-1.26071 -0.9317,-0.5754 -1.5894,-1.3704 -0.6579,-0.7947 -0.6579,-1.9458 0,-1.4798 1.0415,-2.4939 1.0416,-1.014 2.46661,-1.014 0.8222,0 1.37029,0.274 3.83691,1.4801 6.1665,5.0976 2.3294,3.61761 2.3294,7.78351 z m 14.03211,0 q 0,8.3863 -4.65891,15.4844 -4.65929,7.0983 -12.333,10.3323 -0.7126,0.2741 -1.3703,0.2741 -1.4799,0 -2.5215,-1.0414 -1.0413,-1.0415 -1.0413,-2.4667 0,-2.1375 2.13761,-3.234 3.06959,-1.5894 4.1658,-2.4116 4.0563,-2.9599 6.33089,-7.4271 2.2747,-4.4673 2.2747,-9.51 0,-5.0429 -2.2747,-9.51001 -2.2746,-4.4673 -6.33089,-7.4273 -1.09621,-0.8221 -4.1658,-2.4117 -2.13761,-1.0963 -2.13761,-3.2339 0,-1.4252 1.0413,-2.4666 1.0416,-1.0415 2.4667,-1.0415 0.7125,0 1.4251,0.2741 7.6737,3.234 12.333,10.3322 4.65891,7.0983 4.65891,15.48471 z m 14.0321,0 q 0,12.6068 -6.9611,23.1583 -6.9613,10.5514 -18.5269,15.5394 -0.7124,0.2741 -1.4251,0.2741 -1.4251,0 -2.4665,-1.0414 -1.0414,-1.0416 -1.0414,-2.4668 0,-1.9731 2.1376,-3.2339 0.3838,-0.2192 1.2333,-0.5755 0.8497,-0.3561 1.2332,-0.5756 2.5215,-1.3702 4.4947,-2.7953 6.742,-4.988 10.524,-12.4425 3.7822,-7.4545 3.7822,-15.8408 0,-8.38641 -3.7822,-15.84091 -3.782,-7.4547 -10.524,-12.4426 -1.9732,-1.4252 -4.4947,-2.7955 -0.3835,-0.2192 -1.2332,-0.5754 -0.8495,-0.3563 -1.2333,-0.5757 -2.1376,-1.2606 -2.1376,-3.2339 0,-1.4252 1.0414,-2.4665 1.0414,-1.0416 2.4665,-1.0416 0.7127,0 1.4251,0.2741 11.5656,4.988 18.5269,15.5395 6.9611,10.5514 6.9611,23.15851 z"
         id="path5034"
         inkscape:connector-curvature="0"
         style="fill:#cd8080;fill-opacity:1" />
    </g>
    <g
       id="g5036"
       transform="translate(-5.1713105,123.24957)"
       style="fill:#cd8080;fill-opacity:1">
      <use
         height="1052.3622"
         width="744.09448"
         x="0"
         y="0"
         inkscape:tiled-clone-of="#use3996"
         xlink:href="#use3996"
         transform="translate(499.78745,0)"
         id="use5038"
         style="fill:#cd8080;stroke:none;fill-opacity:1" />
      <path
         unicode=""
         horiz-adv-x="1408"
         d="m 561.7845,1000.9373 0,10.5242 q 0,2.1925 -1.5349,3.7272 -1.5346,1.5349 -3.72721,1.5349 l -22.802,0 0,22.802 q 0,2.1925 -1.5348,3.7271 -1.5348,1.5349 -3.7273,1.5349 l -10.5241,0 q -2.1925,0 -3.7272,-1.5349 -1.5349,-1.5346 -1.5349,-3.7271 l 0,-22.802 -22.8019,0 q -2.1926,0 -3.7273,-1.5349 -1.5348,-1.5347 -1.5348,-3.7272 l 0,-10.5242 q 0,-2.19251 1.5348,-3.72711 1.5347,-1.5348 3.7273,-1.5348 l 22.8019,0 0,-22.8021 q 0,-2.1926 1.5349,-3.7273 1.5347,-1.5348 3.7272,-1.5348 l 10.5241,0 q 2.1925,0 3.7273,1.5348 1.5348,1.5347 1.5348,3.7273 l 0,22.8021 22.802,0 q 2.1926,0 3.72721,1.5348 1.5349,1.5346 1.5349,3.72711 z"
         id="path5040"
         inkscape:connector-curvature="0"
         style="fill:#cd8080;fill-opacity:1" />
    </g>
    <g
       id="g5042"
       transform="translate(-5.1713105,123.24957)"
       style="fill:#cd8080;fill-opacity:1">
      <use
         height="1052.3622"
         width="744.09448"
         x="0"
         y="0"
         inkscape:tiled-clone-of="#use3996"
         xlink:href="#use3996"
         transform="translate(599.74493,0)"
         id="use5044"
         style="fill:#cd8080;stroke:none;fill-opacity:1" />
      <path
         unicode=""
         horiz-adv-x="1408"
         d="m 661.8671,1000.9375 0,10.5239 q 0,2.1926 -1.5349,3.7273 -1.5347,1.5347 -3.7272,1.5347 l -66.6523,0 q -2.1925,0 -3.7273,-1.5347 -1.5347,-1.5347 -1.5347,-3.7273 l 0,-10.5239 q 0,-2.19261 1.5347,-3.72731 1.5348,-1.5348 3.7273,-1.5348 l 66.6523,0 q 2.1925,0 3.7272,1.5348 1.5349,1.5347 1.5349,3.72731 z"
         id="path5046"
         inkscape:connector-curvature="0"
         style="fill:#cd8080;fill-opacity:1" />
    </g>
    <g
       id="g5048"
       transform="translate(-5.1713105,123.24957)"
       style="fill:#cd8080;fill-opacity:1">
      <rect
         inkscape:tile-y0="952.34222"
         inkscape:tile-x0="0.062455468"
         y="956.2207"
         x="-27.194853"
         height="99.957489"
         width="99.957489"
         id="rect5050"
         style="fill:#cd8080;stroke:none;fill-opacity:1"
         inkscape:tile-cx="50.0412"
         inkscape:tile-cy="1002.321"
         inkscape:tile-w="99.957489"
         inkscape:tile-h="99.957489" />
      <path
         unicode=""
         d="m 64.88009,1030.7554 0,7.0161 q 0,1.4252 -1.0413,2.4667 -1.0416,1.0413 -2.4665,1.0413 l -77.1765,0 q -1.4251,0 -2.4667,-1.0413 -1.0414,-1.0415 -1.0414,-2.4667 l 0,-7.0161 q 0,-1.4249 1.0414,-2.4665 1.0416,-1.0415 2.4667,-1.0415 l 77.1765,0 q 1.4249,0 2.4665,1.0415 1.0413,1.0416 1.0413,2.4665 z m 0,-28.064 0,7.016 q 0,1.4251 -1.0413,2.4666 -1.0416,1.0414 -2.4665,1.0414 l -77.1765,0 q -1.4251,0 -2.4667,-1.0414 -1.0414,-1.0415 -1.0414,-2.4666 l 0,-7.016 q 0,-1.4252 1.0414,-2.4666 1.0416,-1.04141 2.4667,-1.04141 l 77.1765,0 q 1.4249,0 2.4665,1.04141 1.0413,1.0414 1.0413,2.4666 z m 0,-28.06411 0,7.016 q 0,1.4251 -1.0413,2.4666 -1.0416,1.0413 -2.4665,1.0413 l -77.1765,0 q -1.4251,0 -2.4667,-1.0413 -1.0414,-1.0415 -1.0414,-2.4666 l 0,-7.016 q 0,-1.4251 1.0414,-2.4667 1.0416,-1.0414 2.4667,-1.0414 l 77.1765,0 q 1.4249,0 2.4665,1.0414 1.0413,1.0416 1.0413,2.4667 z"
         id="path5052"
         inkscape:connector-curvature="0"
         style="fill:#cd8080;fill-opacity:1" />
    </g>
    <g
       inkscape:export-ydpi="4.3099999"
       inkscape:export-xdpi="4.3099999"
       inkscape:export-filename="C:\xds\demo\src\icons\next.png"
       id="g5054"
       transform="translate(-5.1713105,123.24957)"
       style="fill:#cd8080;fill-opacity:1">
      <path
         unicode=""
         d="m 771.43046,997.14978 q 0,-2.7778 -1.9032,-4.681 L 736.0413,958.98277 q -2.00611,-1.90319 -4.68086,-1.90319 -2.62334,0 -4.6294,1.90319 l -3.85786,3.85784 q -1.9546,1.95463 -1.9546,4.68083 0,2.72621 1.9546,4.68084 l 15.07131,15.07127 h -36.21221 q -2.6748,0 -4.34652,1.9289 -1.67171,1.92893 -1.67171,4.65513 v 6.58422 q 0,2.7262 1.67171,4.6551 1.67172,1.9289 4.34652,1.9289 h 36.21221 l -15.07131,15.1227 q -1.9546,1.8518 -1.9546,4.6294 0,2.7777 1.9546,4.6294 l 3.85786,3.8578 q 1.95465,1.9547 4.6294,1.9547 2.7262,0 4.68086,-1.9547 l 33.48596,-33.486 q 1.9032,-1.80032 1.9032,-4.62932 z"
         id="path5056"
         inkscape:connector-curvature="0"
         style="fill:#cd8080;fill-opacity:1" />
      <use
         style="fill:#cd8080;fill-opacity:1;stroke:#000000;stroke-opacity:1"
         id="use5058"
         transform="translate(710.78836,-9.0497934)"
         xlink:href="#use3996"
         inkscape:tiled-clone-of="#use3996"
         y="0"
         x="0"
         width="744.09448"
         height="1052.3622" />
    </g>
  </g>
</svg>
