<?xml version="1.0" encoding="UTF-8" standalone="no"?>
<!-- Created with Inkscape (http://www.inkscape.org/) -->

<svg
   xmlns:dc="http://purl.org/dc/elements/1.1/"
   xmlns:cc="http://creativecommons.org/ns#"
   xmlns:rdf="http://www.w3.org/1999/02/22-rdf-syntax-ns#"
   xmlns:svg="http://www.w3.org/2000/svg"
   xmlns="http://www.w3.org/2000/svg"
   xmlns:xlink="http://www.w3.org/1999/xlink"
   xmlns:sodipodi="http://sodipodi.sourceforge.net/DTD/sodipodi-0.dtd"
   xmlns:inkscape="http://www.inkscape.org/namespaces/inkscape"
   width="744.09448819"
   height="1052.3622047"
   id="svg5051"
   version="1.1"
   inkscape:version="0.48.5 r10040"
   sodipodi:docname="icons.svg"
   inkscape:export-filename="E:\icons.png"
   inkscape:export-xdpi="36.015312"
   inkscape:export-ydpi="36.015312">
  <defs
     id="defs5053" />
  <sodipodi:namedview
     id="base"
     pagecolor="#ffffff"
     bordercolor="#666666"
     borderopacity="1.0"
     inkscape:pageopacity="0"
     inkscape:pageshadow="2"
     inkscape:zoom="0.49901848"
     inkscape:cx="-291.70617"
     inkscape:cy="573.97851"
     inkscape:document-units="px"
     inkscape:current-layer="layer1"
     showgrid="false"
     inkscape:window-width="1858"
     inkscape:window-height="1058"
     inkscape:window-x="-8"
     inkscape:window-y="-8"
     inkscape:window-maximized="1" />
  <metadata
     id="metadata5056">
    <rdf:RDF>
      <cc:Work
         rdf:about="">
        <dc:format>image/svg+xml</dc:format>
        <dc:type
           rdf:resource="http://purl.org/dc/dcmitype/StillImage" />
        <dc:title></dc:title>
      </cc:Work>
    </rdf:RDF>
  </metadata>
  <g
     inkscape:label="Layer 1"
     inkscape:groupmode="layer"
     id="layer1">
    <rect
       style="color:#000000;fill:#2da300;fill-opacity:1;fill-rule:nonzero;stroke:none;stroke-width:0.99999994;marker:none;visibility:visible;display:inline;overflow:visible;enable-background:accumulate"
       id="rect3069"
       width="1717.5399"
       height="1152.9155"
       x="-699.15704"
       y="177.3244" />
    <g
       id="g5004"
       style="fill:#ffffff;fill-opacity:1"
       inkscape:export-filename="C:\xds\demo\src\sprite.png"
       inkscape:export-xdpi="27.011492"
       inkscape:export-ydpi="27.011492"
       transform="translate(43.177883,-718.55599)">
      <use
         style="fill:#ffffff;fill-opacity:1;stroke:none"
         id="use4098"
         transform="translate(99.957489,0)"
         xlink:href="#use3996"
         inkscape:tiled-clone-of="#use3996"
         y="0"
         x="0"
         width="744.09448"
         height="1052.3622" />
      <path
         style="fill:#ffffff;fill-opacity:1"
         inkscape:connector-curvature="0"
         id="path3978"
         d="m 150.93079,995.67229 q 0,7.61901 -5.1523,14.08701 -5.1525,6.4679 -14.0595,10.2225 -8.9071,3.7547 -19.3763,3.7547 -4.7139,0 -9.647,-0.877 -6.796805,4.8234 -15.2379,7.0161 -1.9733,0.4933 -4.714,0.8768 l -0.1643,0 q -0.603,0 -1.1237,-0.4384 -0.5209,-0.4384 -0.6304,-1.151 -0.055,-0.1645 -0.055,-0.3564 0,-0.1918 0.027,-0.3561 0.027,-0.1647 0.1095,-0.329 l 0.1371,-0.274 q 0,0 0.1918,-0.3016 0.1917,-0.3014 0.2193,-0.2741 0.027,0.027 0.2466,-0.274 0.219301,-0.3015 0.219301,-0.2465 0.2741,-0.3289 1.260599,-1.3705 0.9867,-1.0414 1.425201,-1.6169 0.438599,-0.5755 1.2333,-1.5896 0.794799,-1.014 1.3704,-2.1103 0.5755,-1.0962 1.1235,-2.4118 -6.7968,-3.9466 -10.6884,-9.7018 -3.8918,-5.7553 -3.8918,-12.27811 0,-7.6188 5.1524,-14.0868 5.1525,-6.4679 14.059595,-10.2227 8.907004,-3.7546 19.376304,-3.7546 10.4691,0 19.37631,3.7546 8.907,3.7548 14.0595,10.2227 5.1523,6.468 5.1523,14.0868 z m 21.0482,14.03211 q 0,6.5775 -3.8917,12.3055 -3.8916,5.7279 -10.6885,9.6744 0.5481,1.3155 1.12361,2.4118 0.5756,1.0961 1.37029,2.1102 0.7948,1.014 1.2334,1.5897 0.4384,0.5754 1.4252,1.6169 0.9865,1.0415 1.2606,1.3703 0.055,0.055 0.2192,0.2467 0.1646,0.1918 0.2467,0.2741 0.081,0.082 0.2194,0.2741 0.1369,0.1918 0.1917,0.3015 l 0.1371,0.2741 q 0,0 0.1095,0.3287 0.1096,0.3289 0.027,0.3563 -0.081,0.027 -0.055,0.3563 -0.1644,0.7674 -0.7125,1.2058 -0.5482,0.4386 -1.2059,0.3838 -2.7406,-0.3838 -4.7139,-0.877 -8.4412,-2.1927 -15.2379,-7.0161 -4.9331,0.877 -9.6471,0.877 -14.8542,0 -25.8716,-7.2353 3.1793,0.2192 4.8236,0.2192 8.8247,0 16.937,-2.4666 8.1123,-2.4665 14.4706,-7.0707 6.8516,-5.0427 10.5242,-11.6204 3.6723,-6.5775 3.6723,-13.92241 0,-4.2206 -1.2607,-8.3315 7.0709,3.8917 11.18191,9.7566 4.11089,5.86511 4.11089,12.60701 z"
         horiz-adv-x="1792"
         unicode="" />
    </g>
    <g
       id="g4988"
       inkscape:export-filename="C:\xds\demo\src\icons\plus.png"
       inkscape:export-xdpi="36.02"
       inkscape:export-ydpi="36.02">
      <use
         style="fill:none;stroke:none"
         id="use4106"
         transform="translate(499.78745,0)"
         xlink:href="#use3996"
         inkscape:tiled-clone-of="#use3996"
         y="0"
         x="0"
         width="744.09448"
         height="1052.3622" />
      <path
         style="fill:#ffffff;fill-opacity:1"
         inkscape:connector-curvature="0"
         id="path3984"
         d="m 561.7845,1000.9373 0,10.5242 q 0,2.1925 -1.5349,3.7272 -1.5346,1.5349 -3.72721,1.5349 l -22.802,0 0,22.802 q 0,2.1925 -1.5348,3.7271 -1.5348,1.5349 -3.7273,1.5349 l -10.5241,0 q -2.1925,0 -3.7272,-1.5349 -1.5349,-1.5346 -1.5349,-3.7271 l 0,-22.802 -22.8019,0 q -2.1926,0 -3.7273,-1.5349 -1.5348,-1.5347 -1.5348,-3.7272 l 0,-10.5242 q 0,-2.19251 1.5348,-3.72711 1.5347,-1.5348 3.7273,-1.5348 l 22.8019,0 0,-22.8021 q 0,-2.1926 1.5349,-3.7273 1.5347,-1.5348 3.7272,-1.5348 l 10.5241,0 q 2.1925,0 3.7273,1.5348 1.5348,1.5347 1.5348,3.7273 l 0,22.8021 22.802,0 q 2.1926,0 3.72721,1.5348 1.5349,1.5346 1.5349,3.72711 z"
         horiz-adv-x="1408"
         unicode="" />
    </g>
    <g
       id="g4984"
       inkscape:export-filename="C:\xds\demo\src\icons\minus.png"
       inkscape:export-xdpi="36.02"
       inkscape:export-ydpi="36.02">
      <use
         style="fill:none;stroke:none"
         id="use4108"
         transform="translate(599.74493,0)"
         xlink:href="#use3996"
         inkscape:tiled-clone-of="#use3996"
         y="0"
         x="0"
         width="744.09448"
         height="1052.3622" />
      <path
         style="fill:#ffffff;fill-opacity:1"
         inkscape:connector-curvature="0"
         id="path3986"
         d="m 661.8671,1000.9375 0,10.5239 q 0,2.1926 -1.5349,3.7273 -1.5347,1.5347 -3.7272,1.5347 l -66.6523,0 q -2.1925,0 -3.7273,-1.5347 -1.5347,-1.5347 -1.5347,-3.7273 l 0,-10.5239 q 0,-2.19261 1.5347,-3.72731 1.5348,-1.5348 3.7273,-1.5348 l 66.6523,0 q 2.1925,0 3.7272,1.5348 1.5349,1.5347 1.5349,3.72731 z"
         horiz-adv-x="1408"
         unicode="" />
    </g>
    <g
       id="g5008">
      <rect
         inkscape:tile-h="99.957489"
         inkscape:tile-w="99.957489"
         inkscape:tile-cy="1002.321"
         inkscape:tile-cx="50.0412"
         style="fill:none;stroke:none"
         id="use3996"
         width="99.957489"
         height="99.957489"
         x="-27.194853"
         y="956.2207"
         inkscape:tile-x0="0.062455468"
         inkscape:tile-y0="952.34222" />
      <path
         style="fill:#ffffff;fill-opacity:1"
         inkscape:connector-curvature="0"
         id="path3988"
         d="m 64.88009,1030.7554 0,7.0161 q 0,1.4252 -1.0413,2.4667 -1.0416,1.0413 -2.4665,1.0413 l -77.1765,0 q -1.4251,0 -2.4667,-1.0413 -1.0414,-1.0415 -1.0414,-2.4667 l 0,-7.0161 q 0,-1.4249 1.0414,-2.4665 1.0416,-1.0415 2.4667,-1.0415 l 77.1765,0 q 1.4249,0 2.4665,1.0415 1.0413,1.0416 1.0413,2.4665 z m 0,-28.064 0,7.016 q 0,1.4251 -1.0413,2.4666 -1.0416,1.0414 -2.4665,1.0414 l -77.1765,0 q -1.4251,0 -2.4667,-1.0414 -1.0414,-1.0415 -1.0414,-2.4666 l 0,-7.016 q 0,-1.4252 1.0414,-2.4666 1.0416,-1.04141 2.4667,-1.04141 l 77.1765,0 q 1.4249,0 2.4665,1.04141 1.0413,1.0414 1.0413,2.4666 z m 0,-28.06411 0,7.016 q 0,1.4251 -1.0413,2.4666 -1.0416,1.0413 -2.4665,1.0413 l -77.1765,0 q -1.4251,0 -2.4667,-1.0413 -1.0414,-1.0415 -1.0414,-2.4666 l 0,-7.016 q 0,-1.4251 1.0414,-2.4667 1.0416,-1.0414 2.4667,-1.0414 l 77.1765,0 q 1.4249,0 2.4665,1.0414 1.0413,1.0416 1.0413,2.4667 z"
         unicode="" />
    </g>
    <g
       id="g4980"
       inkscape:export-filename="C:\xds\demo\src\sprite.png"
       inkscape:export-xdpi="27.011492"
       inkscape:export-ydpi="27.011492"
       transform="translate(-1267.3554,-709.5062)">
      <path
         style="fill:#ffffff;fill-opacity:1"
         inkscape:connector-curvature="0"
         id="path4896"
         d="m 771.43046,997.14978 q 0,-2.7778 -1.9032,-4.681 L 736.0413,958.98277 q -2.00611,-1.90319 -4.68086,-1.90319 -2.62334,0 -4.6294,1.90319 l -3.85786,3.85784 q -1.9546,1.95463 -1.9546,4.68083 0,2.72621 1.9546,4.68084 l 15.07131,15.07127 h -36.21221 q -2.6748,0 -4.34652,1.9289 -1.67171,1.92893 -1.67171,4.65513 v 6.58422 q 0,2.7262 1.67171,4.6551 1.67172,1.9289 4.34652,1.9289 h 36.21221 l -15.07131,15.1227 q -1.9546,1.8518 -1.9546,4.6294 0,2.7777 1.9546,4.6294 l 3.85786,3.8578 q 1.95465,1.9547 4.6294,1.9547 2.7262,0 4.68086,-1.9547 l 33.48596,-33.486 q 1.9032,-1.80032 1.9032,-4.62932 z"
         unicode="" />
      <use
         height="1052.3622"
         width="744.09448"
         x="0"
         y="0"
         inkscape:tiled-clone-of="#use3996"
         xlink:href="#use3996"
         transform="translate(710.78836,-9.0497934)"
         id="use4898"
         style="fill:#ff7474;fill-opacity:1;stroke:#000000;stroke-opacity:1" />
    </g>
    <g
       id="g5036"
       transform="translate(-5.1713105,123.24957)"
       style="fill:#cd8080;fill-opacity:1">
      <use
         height="1052.3622"
         width="744.09448"
         x="0"
         y="0"
         inkscape:tiled-clone-of="#use3996"
         xlink:href="#use3996"
         transform="translate(499.78745,0)"
         id="use5038"
         style="fill:#cd8080;stroke:none;fill-opacity:1" />
      <path
         unicode=""
         horiz-adv-x="1408"
         d="m 561.7845,1000.9373 0,10.5242 q 0,2.1925 -1.5349,3.7272 -1.5346,1.5349 -3.72721,1.5349 l -22.802,0 0,22.802 q 0,2.1925 -1.5348,3.7271 -1.5348,1.5349 -3.7273,1.5349 l -10.5241,0 q -2.1925,0 -3.7272,-1.5349 -1.5349,-1.5346 -1.5349,-3.7271 l 0,-22.802 -22.8019,0 q -2.1926,0 -3.7273,-1.5349 -1.5348,-1.5347 -1.5348,-3.7272 l 0,-10.5242 q 0,-2.19251 1.5348,-3.72711 1.5347,-1.5348 3.7273,-1.5348 l 22.8019,0 0,-22.8021 q 0,-2.1926 1.5349,-3.7273 1.5347,-1.5348 3.7272,-1.5348 l 10.5241,0 q 2.1925,0 3.7273,1.5348 1.5348,1.5347 1.5348,3.7273 l 0,22.8021 22.802,0 q 2.1926,0 3.72721,1.5348 1.5349,1.5346 1.5349,3.72711 z"
         id="path5040"
         inkscape:connector-curvature="0"
         style="fill:#cd8080;fill-opacity:1" />
    </g>
    <g
       id="g5042"
       transform="translate(-5.1713105,123.24957)"
       style="fill:#cd8080;fill-opacity:1">
      <use
         height="1052.3622"
         width="744.09448"
         x="0"
         y="0"
         inkscape:tiled-clone-of="#use3996"
         xlink:href="#use3996"
         transform="translate(599.74493,0)"
         id="use5044"
         style="fill:#cd8080;stroke:none;fill-opacity:1" />
      <path
         unicode=""
         horiz-adv-x="1408"
         d="m 661.8671,1000.9375 0,10.5239 q 0,2.1926 -1.5349,3.7273 -1.5347,1.5347 -3.7272,1.5347 l -66.6523,0 q -2.1925,0 -3.7273,-1.5347 -1.5347,-1.5347 -1.5347,-3.7273 l 0,-10.5239 q 0,-2.19261 1.5347,-3.72731 1.5348,-1.5348 3.7273,-1.5348 l 66.6523,0 q 2.1925,0 3.7272,1.5348 1.5349,1.5347 1.5349,3.72731 z"
         id="path5046"
         inkscape:connector-curvature="0"
         style="fill:#cd8080;fill-opacity:1" />
    </g>
    <g
       id="g5048"
       transform="translate(-5.1713105,123.24957)"
       style="fill:#cd8080;fill-opacity:1">
      <rect
         inkscape:tile-y0="952.34222"
         inkscape:tile-x0="0.062455468"
         y="956.2207"
         x="-27.194853"
         height="99.957489"
         width="99.957489"
         id="rect5050"
         style="fill:#cd8080;stroke:none;fill-opacity:1"
         inkscape:tile-cx="50.0412"
         inkscape:tile-cy="1002.321"
         inkscape:tile-w="99.957489"
         inkscape:tile-h="99.957489" />
      <path
         unicode=""
         d="m 64.88009,1030.7554 0,7.0161 q 0,1.4252 -1.0413,2.4667 -1.0416,1.0413 -2.4665,1.0413 l -77.1765,0 q -1.4251,0 -2.4667,-1.0413 -1.0414,-1.0415 -1.0414,-2.4667 l 0,-7.0161 q 0,-1.4249 1.0414,-2.4665 1.0416,-1.0415 2.4667,-1.0415 l 77.1765,0 q 1.4249,0 2.4665,1.0415 1.0413,1.0416 1.0413,2.4665 z m 0,-28.064 0,7.016 q 0,1.4251 -1.0413,2.4666 -1.0416,1.0414 -2.4665,1.0414 l -77.1765,0 q -1.4251,0 -2.4667,-1.0414 -1.0414,-1.0415 -1.0414,-2.4666 l 0,-7.016 q 0,-1.4252 1.0414,-2.4666 1.0416,-1.04141 2.4667,-1.04141 l 77.1765,0 q 1.4249,0 2.4665,1.04141 1.0413,1.0414 1.0413,2.4666 z m 0,-28.06411 0,7.016 q 0,1.4251 -1.0413,2.4666 -1.0416,1.0413 -2.4665,1.0413 l -77.1765,0 q -1.4251,0 -2.4667,-1.0413 -1.0414,-1.0415 -1.0414,-2.4666 l 0,-7.016 q 0,-1.4251 1.0414,-2.4667 1.0416,-1.0414 2.4667,-1.0414 l 77.1765,0 q 1.4249,0 2.4665,1.0414 1.0413,1.0416 1.0413,2.4667 z"
         id="path5052"
         inkscape:connector-curvature="0"
         style="fill:#cd8080;fill-opacity:1" />
    </g>
    <g
       id="g3874"
       transform="translate(-190.33144,-499.17056)"
       inkscape:export-filename="C:\xds\demo\src\sprite.png"
       inkscape:export-xdpi="27.011492"
       inkscape:export-ydpi="27.011492">
      <g
         inkscape:export-ydpi="36"
         inkscape:export-xdpi="36"
         inkscape:export-filename="C:\xds\demo\src\icons\listen.png"
         style="fill:none"
         transform="translate(433.44572,-219.38543)"
         id="g3960">
        <rect
           inkscape:tile-h="99.957489"
           inkscape:tile-w="99.957489"
           inkscape:tile-cy="1002.321"
           inkscape:tile-cx="50.0412"
           style="fill:none;stroke:none"
           id="rect3962"
           width="99.957489"
           height="99.957489"
           x="-27.194853"
           y="956.2207"
           inkscape:tile-x0="0.062455468"
           inkscape:tile-y0="952.34222" />
        <path
           style="fill:none"
           inkscape:connector-curvature="0"
           id="path3964"
           d="m 64.88009,1030.7554 0,7.0161 q 0,1.4252 -1.0413,2.4667 -1.0416,1.0413 -2.4665,1.0413 l -77.1765,0 q -1.4251,0 -2.4667,-1.0413 -1.0414,-1.0415 -1.0414,-2.4667 l 0,-7.0161 q 0,-1.4249 1.0414,-2.4665 1.0416,-1.0415 2.4667,-1.0415 l 77.1765,0 q 1.4249,0 2.4665,1.0415 1.0413,1.0416 1.0413,2.4665 z m 0,-28.064 0,7.016 q 0,1.4251 -1.0413,2.4666 -1.0416,1.0414 -2.4665,1.0414 l -77.1765,0 q -1.4251,0 -2.4667,-1.0414 -1.0414,-1.0415 -1.0414,-2.4666 l 0,-7.016 q 0,-1.4252 1.0414,-2.4666 1.0416,-1.04141 2.4667,-1.04141 l 77.1765,0 q 1.4249,0 2.4665,1.04141 1.0413,1.0414 1.0413,2.4666 z m 0,-28.06411 0,7.016 q 0,1.4251 -1.0413,2.4666 -1.0416,1.0413 -2.4665,1.0413 l -77.1765,0 q -1.4251,0 -2.4667,-1.0413 -1.0414,-1.0415 -1.0414,-2.4666 l 0,-7.016 q 0,-1.4251 1.0414,-2.4667 1.0416,-1.0414 2.4667,-1.0414 l 77.1765,0 q 1.4249,0 2.4665,1.0414 1.0413,1.0416 1.0413,2.4667 z"
           unicode="" />
      </g>
      <path
         inkscape:export-ydpi="36"
         inkscape:export-xdpi="36"
         inkscape:export-filename="C:\xds\demo\src\icons\listen.png"
         style="fill:#ffffff;fill-opacity:1"
         d="m 461.09997,833.2793 c -4.99007,-0.92617 -8.08423,-2.48642 -11.37175,-5.73425 -2.35181,-2.32341 -2.89037,-3.3385 -2.89318,-5.45308 -0.002,-1.24212 0.0825,-1.59673 0.61638,-2.59844 1.3352,-2.50511 3.96249,-3.61071 6.69358,-2.81676 0.95089,0.27643 1.39263,0.5808 2.81977,1.9429 1.91164,1.82453 2.50709,2.26341 3.70467,2.73063 4.45275,1.73715 9.62987,-0.59506 11.19294,-5.04227 0.19988,-0.5687 0.46364,-1.85829 0.58614,-2.86575 0.33475,-2.75318 0.85659,-4.53501 2.03236,-6.93952 1.76087,-3.6011 4.04293,-6.1268 7.43304,-8.22663 5.50732,-3.41124 8.28962,-6.28908 10.53947,-10.90144 1.71233,-3.5104 2.40639,-6.13357 2.59659,-9.81373 0.5457,-10.55846 -5.85268,-20.36801 -15.77445,-24.1843 -3.21788,-1.23772 -4.9707,-1.54329 -8.89234,-1.55018 -3.18286,-0.006 -3.71837,0.044 -5.62347,0.52113 -4.59026,1.14957 -8.15251,3.1143 -11.50346,6.34462 -2.11208,2.03606 -3.83334,4.43592 -5.08288,7.08678 -1.63725,3.47338 -1.82988,3.78427 -2.80478,4.52676 -3.01594,2.29696 -7.36006,1.18724 -8.79484,-2.24665 -0.58403,-1.39779 -0.58221,-2.81008 0.006,-4.42991 1.78285,-4.91195 4.74386,-9.36168 8.90876,-13.38782 5.21525,-5.04149 11.22242,-8.0735 18.84005,-9.50917 3.31926,-0.62557 8.7397,-0.62445 12.11341,0.003 10.52325,1.95565 18.95054,7.59212 24.5827,16.4418 1.88461,2.96125 3.33597,6.34314 4.48857,10.4591 0.60024,2.14345 0.60225,2.16727 0.68255,8.07088 0.0752,5.52803 0.0521,6.05344 -0.3472,7.91516 -1.53532,7.1577 -4.77007,13.1446 -9.85015,18.23072 -2.3263,2.32907 -4.37251,3.93882 -7.09327,5.58025 -3.43992,2.07531 -4.52402,3.74771 -5.1395,7.92857 -0.48386,3.28678 -0.80549,4.43667 -1.84919,6.61125 -2.55346,5.32024 -7.55456,9.43123 -13.20275,10.85287 -1.60622,0.40428 -6.35543,0.68745 -7.6135,0.45395 z m -34.1036,-9.40123 c -1.59482,-0.32645 -2.43851,-0.96264 -3.05294,-2.30205 -0.76908,-1.67654 -0.35132,-2.92278 1.76887,-5.27678 3.28468,-3.64692 5.51185,-8.10021 6.59751,-13.19194 0.50347,-2.36126 0.49694,-8.40189 -0.0116,-10.73754 -0.71814,-3.29825 -1.77223,-6.03341 -3.36043,-8.71976 -1.02842,-1.73949 -1.59605,-2.49514 -3.54393,-4.71776 -1.54576,-1.76379 -1.93659,-2.68848 -1.727,-4.0861 0.33346,-2.22371 2.53993,-3.60534 4.8092,-3.0114 0.67534,0.17676 1.1711,0.54041 2.25582,1.65469 5.89509,6.05568 9.30639,14.19694 9.59943,22.9096 0.13138,3.90654 -0.15471,6.72204 -1.03347,10.17039 -1.52661,5.99055 -4.28283,10.99097 -8.51213,15.44291 -1.48725,1.56556 -2.59391,2.11044 -3.78932,1.86574 z m -9.55805,-8.84584 c -0.7373,-0.23533 -1.84876,-1.29939 -2.19142,-2.09798 -0.34523,-0.80455 -0.34588,-2.23482 -10e-4,-3.04182 0.14765,-0.34589 0.73429,-1.15657 1.30363,-1.80151 2.76714,-3.13454 3.95031,-6.27918 3.93403,-10.45583 -0.0144,-3.69088 -1.22087,-6.94846 -3.65525,-9.86952 -1.75754,-2.10891 -1.90919,-2.43761 -1.81403,-3.93201 0.0644,-1.01076 0.18488,-1.36568 0.66989,-1.97266 0.78794,-0.98613 1.69841,-1.42351 2.96398,-1.42388 1.47385,-3.9e-4 2.13876,0.352 3.53135,1.87176 2.88455,3.14799 4.77364,6.95183 5.59968,11.2755 0.34652,1.81369 0.4141,6.32396 0.11784,7.86396 -0.85631,4.45134 -2.27734,7.5811 -4.98806,10.986 -0.70374,0.88396 -1.62338,1.83475 -2.04364,2.11287 -0.84824,0.56134 -2.46892,0.79078 -3.42661,0.48512 z m -8.35511,-8.58901 c -1.62887,-0.51891 -2.67912,-1.78113 -2.83323,-3.40509 -0.10193,-1.07401 0.14768,-1.69507 1.38694,-3.45082 0.44089,-0.62466 0.57503,-1.03072 0.57503,-1.74078 0,-0.93345 -0.12476,-1.20772 -1.3455,-2.95788 -0.49668,-0.71208 -0.58631,-1.0242 -0.58631,-2.04174 0,-2.50693 1.9459,-4.09936 4.5452,-3.71953 0.80241,0.11724 1.08477,0.29752 2.1007,1.34118 3.7224,3.824 3.94115,9.84016 0.51452,14.1506 -1.19865,1.50782 -2.99263,2.2588 -4.35735,1.82406 z m 74.69449,-25.64227 c -1.80709,-0.53821 -2.51071,-1.61467 -2.75701,-4.21793 -0.0991,-1.04712 -0.31725,-2.31672 -0.48486,-2.82133 -1.20336,-3.623 -4.17112,-6.2715 -7.96063,-7.10426 -4.69299,-1.0313 -9.53973,1.46514 -11.66996,6.01094 -1.17574,2.50896 -2.11181,3.27331 -4.00866,3.27331 -2.40624,0 -4.25163,-2.36328 -3.63772,-4.65861 0.40197,-1.50294 1.77518,-4.03936 3.08085,-5.69055 2.03703,-2.57612 5.34805,-4.88527 8.53349,-5.9514 3.00684,-1.00633 6.98041,-1.09263 10.22341,-0.22201 3.50179,0.94009 5.85758,2.31779 8.4275,4.92853 2.50117,2.54089 4.15591,5.705 4.82258,9.22154 0.71474,3.77002 0.18467,6.01137 -1.64716,6.96491 -0.71031,0.36974 -2.13844,0.50018 -2.92183,0.26686 z"
         id="path3901"
         inkscape:connector-curvature="0" />
    </g>
    <g
       id="g3857"
       transform="translate(237.58933,-597.61089)"
       inkscape:export-filename="C:\xds\demo\src\sprite.png"
       inkscape:export-xdpi="27.011492"
       inkscape:export-ydpi="27.011492">
      <g
         inkscape:export-ydpi="36.015312"
         inkscape:export-xdpi="36.015312"
         inkscape:export-filename="C:\xds\demo\src\icons\info.png"
         id="g3983"
         transform="translate(-194.41145,-120.9451)"
         style="fill:none">
        <rect
           inkscape:tile-y0="952.34222"
           inkscape:tile-x0="0.062455468"
           y="956.2207"
           x="-27.194853"
           height="99.957489"
           width="99.957489"
           id="rect3985"
           style="fill:none;stroke:none"
           inkscape:tile-cx="50.0412"
           inkscape:tile-cy="1002.321"
           inkscape:tile-w="99.957489"
           inkscape:tile-h="99.957489" />
        <path
           unicode=""
           d="m 64.88009,1030.7554 0,7.0161 q 0,1.4252 -1.0413,2.4667 -1.0416,1.0413 -2.4665,1.0413 l -77.1765,0 q -1.4251,0 -2.4667,-1.0413 -1.0414,-1.0415 -1.0414,-2.4667 l 0,-7.0161 q 0,-1.4249 1.0414,-2.4665 1.0416,-1.0415 2.4667,-1.0415 l 77.1765,0 q 1.4249,0 2.4665,1.0415 1.0413,1.0416 1.0413,2.4665 z m 0,-28.064 0,7.016 q 0,1.4251 -1.0413,2.4666 -1.0416,1.0414 -2.4665,1.0414 l -77.1765,0 q -1.4251,0 -2.4667,-1.0414 -1.0414,-1.0415 -1.0414,-2.4666 l 0,-7.016 q 0,-1.4252 1.0414,-2.4666 1.0416,-1.04141 2.4667,-1.04141 l 77.1765,0 q 1.4249,0 2.4665,1.04141 1.0413,1.0414 1.0413,2.4666 z m 0,-28.06411 0,7.016 q 0,1.4251 -1.0413,2.4666 -1.0416,1.0413 -2.4665,1.0413 l -77.1765,0 q -1.4251,0 -2.4667,-1.0413 -1.0414,-1.0415 -1.0414,-2.4666 l 0,-7.016 q 0,-1.4251 1.0414,-2.4667 1.0416,-1.0414 2.4667,-1.0414 l 77.1765,0 q 1.4249,0 2.4665,1.0414 1.0413,1.0416 1.0413,2.4667 z"
           id="path3987"
           inkscape:connector-curvature="0"
           style="fill:none" />
      </g>
      <path
         inkscape:connector-curvature="0"
         id="path3989"
         d="m -171.62755,843.8694 c -22.85483,0 -41.38182,18.53328 -41.38182,41.3881 0,22.85482 18.52699,41.38181 41.38182,41.38181 22.85481,0 41.3818,-18.52699 41.3818,-41.38181 0,-22.85482 -18.52699,-41.3881 -41.3818,-41.3881 z m 0.17619,15.78877 c 3.78331,0 6.84663,3.06961 6.84663,6.85292 0,3.78331 -3.06332,6.84663 -6.84663,6.84663 -3.7833,0 -6.85291,-3.06332 -6.85291,-6.84663 0,-3.78331 3.06961,-6.85292 6.85291,-6.85292 z m -6.5131,19.78474 13.01991,0 0,30.1994 -13.01991,0 0,-30.1994 z"
         style="color:#000000;fill:#ffffff;fill-opacity:1;fill-rule:nonzero;stroke:none;stroke-width:1.11417639;marker:none;visibility:visible;display:inline;overflow:visible;enable-background:accumulate" />
    </g>
    <g
       id="g3863"
       transform="translate(-397.90026,-416.25899)"
       inkscape:export-filename="C:\xds\demo\src\sprite.png"
       inkscape:export-xdpi="27.011492"
       inkscape:export-ydpi="27.011492">
      <g
         inkscape:export-ydpi="36.02"
         inkscape:export-xdpi="36.02"
         inkscape:export-filename="C:\xds\demo\src\icons\vol-plus.png"
         id="g3054"
         transform="translate(241.16317,-302.297)"
         style="fill:none">
        <rect
           inkscape:tile-y0="952.34222"
           inkscape:tile-x0="0.062455468"
           y="956.2207"
           x="-27.194853"
           height="99.957489"
           width="99.957489"
           id="rect3056"
           style="fill:none;stroke:none"
           inkscape:tile-cx="50.0412"
           inkscape:tile-cy="1002.321"
           inkscape:tile-w="99.957489"
           inkscape:tile-h="99.957489" />
        <path
           unicode=""
           d="m 64.88009,1030.7554 0,7.0161 q 0,1.4252 -1.0413,2.4667 -1.0416,1.0413 -2.4665,1.0413 l -77.1765,0 q -1.4251,0 -2.4667,-1.0413 -1.0414,-1.0415 -1.0414,-2.4667 l 0,-7.0161 q 0,-1.4249 1.0414,-2.4665 1.0416,-1.0415 2.4667,-1.0415 l 77.1765,0 q 1.4249,0 2.4665,1.0415 1.0413,1.0416 1.0413,2.4665 z m 0,-28.064 0,7.016 q 0,1.4251 -1.0413,2.4666 -1.0416,1.0414 -2.4665,1.0414 l -77.1765,0 q -1.4251,0 -2.4667,-1.0414 -1.0414,-1.0415 -1.0414,-2.4666 l 0,-7.016 q 0,-1.4252 1.0414,-2.4666 1.0416,-1.04141 2.4667,-1.04141 l 77.1765,0 q 1.4249,0 2.4665,1.04141 1.0413,1.0414 1.0413,2.4666 z m 0,-28.06411 0,7.016 q 0,1.4251 -1.0413,2.4666 -1.0416,1.0413 -2.4665,1.0413 l -77.1765,0 q -1.4251,0 -2.4667,-1.0413 -1.0414,-1.0415 -1.0414,-2.4666 l 0,-7.016 q 0,-1.4251 1.0414,-2.4667 1.0416,-1.0414 2.4667,-1.0414 l 77.1765,0 q 1.4249,0 2.4665,1.0414 1.0413,1.0416 1.0413,2.4667 z"
           id="path3058"
           inkscape:connector-curvature="0"
           style="fill:none" />
      </g>
      <path
         inkscape:export-ydpi="36.02"
         inkscape:export-xdpi="36.02"
         inkscape:export-filename="C:\xds\demo\src\icons\vol-plus.png"
         style="fill:#ffffff;fill-opacity:1"
         inkscape:connector-curvature="0"
         id="path3076"
         d="m 261.40886,682.32743 0,43.15012 q 0,1.03122 -0.75365,1.78465 -0.75351,0.75366 -1.78465,0.75366 -1.03107,0 -1.78473,-0.75366 l -13.20677,-13.20677 -10.39099,0 q -1.03114,0 -1.78464,-0.75344 -0.75359,-0.75358 -0.75359,-1.78473 l 0,-15.22947 q 0,-1.03114 0.75359,-1.78473 0.7535,-0.75358 1.78464,-0.75358 l 10.39099,0 13.20677,-13.20685 q 0.75366,-0.75352 1.78473,-0.75352 1.03114,0 1.78465,0.75352 0.75365,0.75359 0.75365,1.7848 z m 15.2294,21.57513 q 0,3.01412 -1.68544,5.61183 -1.6856,2.59771 -4.46181,3.70829 -0.39657,0.19826 -0.99148,0.19826 -1.03108,0 -1.78473,-0.73376 -0.75359,-0.73368 -0.75359,-1.80448 0,-0.83288 0.47604,-1.40804 0.47588,-0.57493 1.15001,-0.99141 0.67428,-0.41641 1.34864,-0.91212 0.67406,-0.49584 1.14994,-1.40811 0.47603,-0.91211 0.47603,-2.26046 0,-1.34856 -0.47603,-2.26068 -0.47588,-0.91225 -1.14994,-1.40797 -0.67436,-0.49577 -1.34864,-0.91218 -0.67414,-0.41633 -1.15002,-0.99156 -0.47603,-0.57501 -0.47603,-1.4079 0,-1.07071 0.75358,-1.80447 0.75366,-0.73369 1.78474,-0.73369 0.59491,0 0.99148,0.19825 2.77622,1.07094 4.46181,3.6884 1.68544,2.61754 1.68544,5.6318 z m 10.15303,0 q 0,6.06796 -3.37099,11.20383 -3.37125,5.13602 -8.92361,7.47599 -0.51561,0.19833 -0.9915,0.19833 -1.07078,0 -1.82444,-0.7535 -0.75343,-0.75359 -0.75343,-1.7848 0,-1.5466 1.54667,-2.33998 2.22103,-1.15002 3.01419,-1.74492 2.93496,-2.14166 4.58075,-5.37393 1.64588,-3.23234 1.64588,-6.88102 0,-3.64881 -1.64588,-6.88102 -1.6458,-3.23234 -4.58075,-5.37406 -0.79316,-0.59484 -3.01419,-1.745 -1.54667,-0.79324 -1.54667,-2.33991 0,-1.03122 0.75343,-1.78472 0.75366,-0.75359 1.7848,-0.75359 0.51553,0 1.03114,0.19833 5.55235,2.33998 8.92361,7.47592 3.37099,5.13602 3.37099,11.20405 z m 10.153,0 q 0,9.12173 -5.03674,16.75633 -5.03689,7.63452 -13.40525,11.24362 -0.51547,0.19833 -1.03114,0.19833 -1.03114,0 -1.78465,-0.75352 -0.75352,-0.75364 -0.75352,-1.78486 0,-1.42765 1.54668,-2.3399 0.2777,-0.15861 0.89236,-0.41642 0.6148,-0.25765 0.89229,-0.41647 1.82445,-0.99142 3.25217,-2.02256 4.87822,-3.6091 7.6147,-9.00285 2.73663,-5.39374 2.73663,-11.4617 0,-6.06803 -2.73663,-11.46178 -2.73648,-5.39389 -7.6147,-9.00291 -1.42772,-1.03121 -3.25217,-2.02271 -0.27749,-0.1586 -0.89229,-0.41633 -0.61466,-0.2578 -0.89236,-0.41655 -1.54668,-0.91211 -1.54668,-2.3399 0,-1.03122 0.75352,-1.78466 0.75351,-0.75366 1.78465,-0.75366 0.51567,0 1.03114,0.19834 8.36836,3.60909 13.40525,11.24369 5.03674,7.63453 5.03674,16.75647 z"
         horiz-adv-x="1664"
         unicode="" />
    </g>
    <g
       id="g3869"
       transform="translate(-418.60669,-416.25899)"
       inkscape:export-filename="C:\xds\demo\src\sprite.png"
       inkscape:export-xdpi="27.011492"
       inkscape:export-ydpi="27.011492">
      <g
         inkscape:export-ydpi="36.02"
         inkscape:export-xdpi="36.02"
         inkscape:export-filename="C:\xds\demo\src\icons\vol-minus.png"
         style="fill:none"
         transform="translate(361.82708,-302.297)"
         id="g3848">
        <rect
           inkscape:tile-h="99.957489"
           inkscape:tile-w="99.957489"
           inkscape:tile-cy="1002.321"
           inkscape:tile-cx="50.0412"
           style="fill:none;stroke:none"
           id="rect3850"
           width="99.957489"
           height="99.957489"
           x="-27.194853"
           y="956.2207"
           inkscape:tile-x0="0.062455468"
           inkscape:tile-y0="952.34222" />
      </g>
      <path
         inkscape:export-ydpi="36.02"
         inkscape:export-xdpi="36.02"
         inkscape:export-filename="C:\xds\demo\src\icons\vol-minus.png"
         sodipodi:nodetypes="sscsscscsscsccscssccscsccccsccscscsccs"
         unicode=""
         horiz-adv-x="1664"
         d="m 392.22578,682.32739 0,43.15012 c 0,0.68748 -0.25122,1.28236 -0.75365,1.78465 -0.50234,0.50244 -1.09722,0.75366 -1.78465,0.75366 -0.68738,0 -1.28229,-0.25122 -1.78473,-0.75366 l -13.20677,-13.20677 -10.39099,0 c -0.68743,0 -1.28231,-0.25115 -1.78464,-0.75344 -0.50239,-0.50239 -0.75359,-1.0973 -0.75359,-1.78473 l 0,-15.22947 c 0,-0.68743 0.2512,-1.28234 0.75359,-1.78473 0.50233,-0.50239 1.09721,-0.75358 1.78464,-0.75358 l 10.39099,0 13.20677,-13.20685 c 0.50244,-0.50235 1.09735,-0.75352 1.78473,-0.75352 0.68743,0 1.28231,0.25117 1.78465,0.75352 0.50243,0.50239 0.75365,1.09733 0.75365,1.7848 z m 15.2294,21.57513 c 0,2.00941 -0.56181,3.88002 -1.68544,5.61183 -1.12373,1.73181 -2.611,2.9679 -4.46181,3.70829 -0.26438,0.13217 -0.59487,0.19826 -0.99148,0.19826 -0.68739,0 -1.2823,-0.24459 -1.78473,-0.73376 -0.50239,-0.48912 -0.75359,-1.09061 -0.75359,-1.80448 0,-0.55525 0.15868,-1.0246 0.47604,-1.40804 0.31725,-0.38329 0.70059,-0.71376 1.15001,-0.99141 0.44952,-0.27761 0.89907,-0.58165 1.34864,-0.91212 0.44937,-0.33056 0.83269,-0.79993 1.14994,-1.40811 0.31735,-0.60807 0.47603,-1.36156 0.47603,-2.26046 0,-0.89904 -0.15868,-1.6526 -0.47603,-2.26068 -0.31725,-0.60817 -0.70057,-1.07749 -1.14994,-1.40797 -0.44957,-0.33051 -0.89912,-0.63457 -1.34864,-0.91218 -0.44943,-0.27755 -0.83277,-0.60807 -1.15002,-0.99156 -0.31735,-0.38334 -0.47603,-0.85264 -0.47603,-1.4079 0,-0.71381 0.25119,-1.3153 0.75358,-1.80447 0.50244,-0.48913 1.09735,-0.73369 1.78474,-0.73369 0.39661,0 0.7271,0.0661 0.99148,0.19825 1.85081,0.71396 3.33808,1.94343 4.46181,3.6884 1.12363,1.74503 1.68544,3.62229 1.68544,5.6318 z"
         id="path3854"
         inkscape:connector-curvature="0"
         style="fill:#ffffff;fill-opacity:1" />
    </g>
    <g
       id="g3851"
       transform="translate(-465.75059,-416.25899)"
       inkscape:export-filename="C:\xds\demo\src\sprite.png"
       inkscape:export-xdpi="27.011492"
       inkscape:export-ydpi="27.011492">
      <g
         inkscape:export-ydpi="36.015312"
         inkscape:export-xdpi="36.015312"
         inkscape:export-filename="C:\xds\demo\src\icons\pause.png"
         id="g3856"
         transform="translate(109.09852,-302.297)"
         style="fill:none">
        <rect
           inkscape:tile-y0="952.34222"
           inkscape:tile-x0="0.062455468"
           y="956.2207"
           x="-27.194853"
           height="99.957489"
           width="99.957489"
           id="rect3858"
           style="fill:none;stroke:none"
           inkscape:tile-cx="50.0412"
           inkscape:tile-cy="1002.321"
           inkscape:tile-w="99.957489"
           inkscape:tile-h="99.957489" />
      </g>
      <path
         inkscape:export-ydpi="36.015312"
         inkscape:export-xdpi="36.015312"
         inkscape:export-filename="C:\xds\demo\src\icons\pause.png"
         style="fill:#ffffff;fill-opacity:1"
         inkscape:connector-curvature="0"
         id="path3072"
         d="m 160.18203,677.96106 0,51.88265 q 0,0.95811 -0.70002,1.6582 -0.7001,0.70016 -1.65813,0.70016 l -18.8666,0 q -0.95804,0 -1.65813,-0.70016 -0.70009,-0.70009 -0.70009,-1.6582 l 0,-51.88265 q 0,-0.95804 0.70009,-1.6582 0.70009,-0.70003 1.65813,-0.70003 l 18.8666,0 q 0.95803,0 1.65813,0.70003 0.70002,0.70016 0.70002,1.6582 z m -33.0162,0 0,51.88265 q 0,0.95811 -0.70016,1.6582 -0.70002,0.70016 -1.65814,0.70016 l -18.86639,0 q -0.9581,0 -1.65819,-0.70016 -0.70016,-0.70009 -0.70016,-1.6582 l 0,-51.88265 q 0,-0.95804 0.70016,-1.6582 0.70009,-0.70003 1.65819,-0.70003 l 18.86639,0 q 0.95812,0 1.65814,0.70003 0.70016,0.70016 0.70016,1.6582 z"
         unicode="" />
    </g>
    <g
       id="g3846"
       transform="translate(-415.65066,-416.25899)"
       inkscape:export-filename="C:\xds\demo\src\sprite.png"
       inkscape:export-xdpi="27.011492"
       inkscape:export-ydpi="27.011492">
      <g
         inkscape:export-ydpi="36.015312"
         inkscape:export-xdpi="36.015312"
         inkscape:export-filename="C:\xds\demo\src\icons\play.png"
         style="fill:none"
         transform="translate(-40.958899,-302.297)"
         id="g3860">
        <rect
           inkscape:tile-h="99.957489"
           inkscape:tile-w="99.957489"
           inkscape:tile-cy="1002.321"
           inkscape:tile-cx="50.0412"
           style="fill:none;stroke:none"
           id="rect3862"
           width="99.957489"
           height="99.957489"
           x="-27.194853"
           y="956.2207"
           inkscape:tile-x0="0.062455468"
           inkscape:tile-y0="952.34222" />
      </g>
      <path
         inkscape:export-ydpi="36.015312"
         inkscape:export-xdpi="36.015312"
         inkscape:export-filename="C:\xds\demo\src\icons\play.png"
         style="fill:#ffffff;fill-opacity:1"
         inkscape:connector-curvature="0"
         id="path3074"
         d="m 6.9004141,705.04473 -48.9347911,27.19416 q -0.847519,0.47912 -1.455511,0.11058 -0.60806,-0.36846 -0.60806,-1.32657 l 0,-54.24088 q 0,-0.9581 0.60806,-1.32657 0.607992,-0.36853 1.455511,0.11046 l 48.9347911,27.19421 q 0.847519,0.47912 0.847519,1.14224 0,0.66339 -0.847519,1.14237 z"
         horiz-adv-x="1408"
         unicode="" />
    </g>
    <g
       id="g3839"
       transform="translate(-216.58093,-237.91208)"
       inkscape:export-filename="C:\xds\demo\src\sprite.png"
       inkscape:export-xdpi="27.011492"
       inkscape:export-ydpi="27.011492">
      <g
         id="g3832"
         transform="translate(-40.113653,-480.64391)"
         style="fill:none"
         inkscape:export-filename="C:\xds\demo\src\icons\rewind.png"
         inkscape:export-xdpi="36.015312"
         inkscape:export-ydpi="36.015312">
        <rect
           inkscape:tile-y0="952.34222"
           inkscape:tile-x0="0.062455468"
           y="956.2207"
           x="-27.194853"
           height="99.957489"
           width="99.957489"
           id="rect3834"
           style="fill:none;stroke:none"
           inkscape:tile-cx="50.0412"
           inkscape:tile-cy="1002.321"
           inkscape:tile-w="99.957489"
           inkscape:tile-h="99.957489" />
      </g>
      <g
         inkscape:export-ydpi="36.015312"
         inkscape:export-xdpi="36.015312"
         inkscape:export-filename="C:\xds\demo\src\icons\rewind.png"
         style="fill:#ffffff;fill-opacity:1"
         transform="translate(2.9146207,1.6904856)"
         id="g3842">
        <path
           inkscape:export-ydpi="36.015312"
           inkscape:export-xdpi="36.015312"
           inkscape:export-filename="C:\xds\demo\src\icons\play.png"
           style="fill:#ffffff;fill-opacity:1"
           inkscape:connector-curvature="0"
           id="path3836"
           d="m -56.174478,523.06027 34.47624,-19.15922 q 0.597107,-0.33755 1.025456,-0.0779 0.4284,0.25959 0.4284,0.93461 l 0,38.21456 q 0,0.67502 -0.4284,0.93462 -0.428349,0.25964 -1.025456,-0.0778 l -34.47624,-19.15925 q -0.597107,-0.33756 -0.597107,-0.80475 0,-0.46738 0.597107,-0.80484 z"
           horiz-adv-x="1408"
           unicode="" />
        <path
           unicode=""
           horiz-adv-x="1408"
           d="m -19.647275,523.06027 34.47624,-19.15922 q 0.597107,-0.33755 1.025457,-0.0779 0.428399,0.25959 0.428399,0.93461 l 0,38.21456 q 0,0.67502 -0.428399,0.93462 -0.42835,0.25964 -1.025457,-0.0778 l -34.47624,-19.15928 q -0.597107,-0.33756 -0.597107,-0.80475 0,-0.46738 0.597107,-0.80484 z"
           id="path3838"
           inkscape:connector-curvature="0"
           style="fill:#ffffff;fill-opacity:1"
           inkscape:export-filename="C:\xds\demo\src\icons\play.png"
           inkscape:export-xdpi="36.015312"
           inkscape:export-ydpi="36.015312" />
      </g>
    </g>
    <g
       id="g3895"
       transform="translate(977.1275,-439.46847)"
       inkscape:export-filename="C:\xds\demo\src\sprite.png"
       inkscape:export-xdpi="27.011492"
       inkscape:export-ydpi="27.011492">
      <rect
         inkscape:tile-h="99.957489"
         inkscape:tile-w="99.957489"
         inkscape:tile-cy="1002.321"
         inkscape:tile-cx="50.0412"
         style="fill:none;stroke:none"
         id="rect3882"
         width="99.957489"
         height="99.957489"
         x="-661.22919"
         y="677.13318"
         inkscape:tile-x0="0.062455468"
         inkscape:tile-y0="952.34222" />
      <path
         sodipodi:nodetypes="cccccc"
         inkscape:connector-curvature="0"
         id="path3886"
         d="m -611.73542,714.09089 -39.41583,26.04207 z m 0.94057,0 39.44522,26.04207 z"
         style="fill:#ffffff;fill-opacity:1;stroke:#ffffff;stroke-width:18.81143188;stroke-linecap:round;stroke-linejoin:round;stroke-miterlimit:4;stroke-opacity:1;stroke-dasharray:none" />
    </g>
  </g>
</svg>
