<svg xmlns="http://www.w3.org/2000/svg" height="100" width="100">
<path d="M 39.3,99.9 C 33.3,99 27.3,95.5 24.3,90 22.4,85.5 27.2,80.3 31.9,82 36,84.8 40.4,89.9 46,86.8 51.9,84.6 51,77.7 52.9,72.9 54.8,67.6 59,63.6 63.8,60.9 74.4,54.3 78.8,39.7 73.7,28.4 69.6,18.4 59,11.5 48.1,12.4 37.6,12.4 28.1,19.9 24.4,29.6 22.7,34.6 14.8,34.8 13,29.8 11.4,25.8 14.4,21.8 16.2,18.4 23.3,6.82 36.6,-0.629 50.2,-0.099 65.8,0.011 80.7,10.6 85.8,25.4 88.5,31.4 87.7,38.1 87.7,44.5 86.1,56.4 78.3,67 68,72.9 63.2,75.7 64.2,81.7 62.4,86.1 59.2,94.5 50.5,100 41.5,100 40.8,100 40,100 39.3,99.9 Z M 63.7,43.5 C 58.8,41.5 61.9,34.3 57.5,31.5 52.8,26.4 43.8,27.1 40.1,33 39.2,37.5 32.8,40.9 30.9,35.1 30.9,30 34.9,25.7 38.9,22.9 47.6,17 60.8,20.1 66.1,29.2 68.2,32.8 69.7,37.3 68.5,41.5 67.7,43.3 65.5,43.9 63.7,43.5 Z"
style="fill:#ffffff"/>
</svg>
