<?xml version="1.0" encoding="UTF-8" standalone="no"?>
<!-- Created with Inkscape (http://www.inkscape.org/) -->

<svg
   xmlns:dc="http://purl.org/dc/elements/1.1/"
   xmlns:cc="http://creativecommons.org/ns#"
   xmlns:rdf="http://www.w3.org/1999/02/22-rdf-syntax-ns#"
   xmlns:svg="http://www.w3.org/2000/svg"
   xmlns="http://www.w3.org/2000/svg"
   xmlns:sodipodi="http://sodipodi.sourceforge.net/DTD/sodipodi-0.dtd"
   xmlns:inkscape="http://www.inkscape.org/namespaces/inkscape"
   width="744.09448819"
   height="1052.3622047"
   id="svg2"
   version="1.1"
   inkscape:version="0.48.5 r10040"
   inkscape:export-filename="C:\xds\demo\favicon.png"
   inkscape:export-xdpi="4.3099999"
   inkscape:export-ydpi="4.3099999"
   sodipodi:docname="logo.svg">
  <defs
     id="defs4" />
  <sodipodi:namedview
     id="base"
     pagecolor="#ffffff"
     bordercolor="#666666"
     borderopacity="1.0"
     inkscape:pageopacity="0.0"
     inkscape:pageshadow="2"
     inkscape:zoom="0.63499076"
     inkscape:cx="19.952853"
     inkscape:cy="676.73938"
     inkscape:document-units="px"
     inkscape:current-layer="layer1"
     showgrid="false"
     inkscape:window-width="1858"
     inkscape:window-height="1058"
     inkscape:window-x="-8"
     inkscape:window-y="-8"
     inkscape:window-maximized="1" />
  <metadata
     id="metadata7">
    <rdf:RDF>
      <cc:Work
         rdf:about="">
        <dc:format>image/svg+xml</dc:format>
        <dc:type
           rdf:resource="http://purl.org/dc/dcmitype/StillImage" />
        <dc:title></dc:title>
      </cc:Work>
    </rdf:RDF>
  </metadata>
  <g
     inkscape:label="Layer 1"
     inkscape:groupmode="layer"
     id="layer1">
    <rect
       style="color:#000000;fill:none;stroke:none;stroke-width:1.04978120000000000;stroke-linecap:butt;stroke-linejoin:miter;stroke-miterlimit:4;stroke-opacity:1;stroke-dasharray:none;stroke-dashoffset:0;marker:none;visibility:visible;display:inline;overflow:visible;enable-background:accumulate"
       id="rect2996"
       width="408.95023"
       height="408.95023"
       x="55.167747"
       y="174.81563"
       ry="14.228203" />
    <path
       inkscape:connector-curvature="0"
       id="path3901"
       d="m 285.82483,508.66683 c -5.35987,-0.99481 -8.68333,-2.67069 -12.21448,-6.15921 -2.52609,-2.49559 -3.10457,-3.58591 -3.10759,-5.85719 -0.002,-1.33417 0.0886,-1.71506 0.66206,-2.79101 1.43415,-2.69076 4.25614,-3.87829 7.18963,-3.0255 1.02136,0.29691 1.49584,0.62384 3.02874,2.08688 2.05331,1.95975 2.69288,2.43115 3.97921,2.93299 4.78273,1.86589 10.34352,-0.63915 12.02243,-5.41594 0.21469,-0.61084 0.49799,-1.996 0.62957,-3.07812 0.35956,-2.95721 0.92007,-4.87109 2.18297,-7.45379 1.89137,-3.86798 4.34255,-6.58085 7.98389,-8.83629 5.91546,-3.66404 8.90395,-6.75515 11.32053,-11.70932 1.83922,-3.77055 2.58472,-6.58812 2.78901,-10.541 0.58615,-11.34093 -6.2864,-21.87744 -16.94345,-25.97655 -3.45635,-1.32944 -5.33907,-1.65766 -9.55133,-1.66506 -3.41874,-0.006 -3.99394,0.0473 -6.04022,0.55975 -4.93043,1.23476 -8.75667,3.34509 -12.35595,6.81481 -2.26861,2.18694 -4.11742,4.76465 -5.45957,7.61196 -1.75857,3.73078 -1.96548,4.06471 -3.01263,4.86223 -3.23945,2.46718 -7.9055,1.27522 -9.44661,-2.41315 -0.62731,-1.50137 -0.62535,-3.01833 0.006,-4.7582 1.91497,-5.27596 5.09542,-10.05545 9.56897,-14.37996 5.60174,-5.4151 12.05409,-8.6718 20.23624,-10.21387 3.56524,-0.67193 9.38738,-0.67073 13.01111,0.003 11.3031,2.10058 20.35492,8.15475 26.40447,17.66026 2.02427,3.1807 3.58319,6.81322 4.82121,11.2342 0.64472,2.3023 0.64688,2.32788 0.73313,8.669 0.0808,5.9377 0.056,6.50205 -0.37293,8.50173 -1.6491,7.68814 -5.12357,14.11872 -10.58012,19.58176 -2.4987,2.50167 -4.69655,4.23071 -7.61894,5.99379 -3.69485,2.2291 -4.85929,4.02544 -5.52038,8.51614 -0.51971,3.53035 -0.86518,4.76545 -1.98622,7.10119 -2.7427,5.71451 -8.11442,10.13015 -14.18119,11.65715 -1.72525,0.43424 -6.82641,0.7384 -8.17771,0.48759 z m 24.35833,-56.36741 c -1.94101,-0.57809 -2.69677,-1.73433 -2.96132,-4.53051 -0.10645,-1.12472 -0.34077,-2.4884 -0.52079,-3.03041 -1.29254,-3.8915 -4.48024,-6.73626 -8.55058,-7.63074 -5.04078,-1.10773 -10.2467,1.57371 -12.53479,6.45639 -1.26288,2.6949 -2.26831,3.51589 -4.30574,3.51589 -2.58456,0 -4.56671,-2.53842 -3.9073,-5.00385 0.43176,-1.61432 1.90674,-4.3387 3.30916,-6.11226 2.18799,-2.76703 5.74438,-5.24731 9.16589,-6.39245 3.22967,-1.0809 7.49771,-1.1736 10.98104,-0.23846 3.7613,1.00976 6.29168,2.48956 9.05205,5.29377 2.68653,2.7292 4.46389,6.12779 5.17997,9.90493 0.76771,4.04941 0.19836,6.45686 -1.76923,7.48107 -0.76295,0.39714 -2.29691,0.53724 -3.13836,0.28663 z"
       style="fill:#ba214d;fill-opacity:1"
       inkscape:export-filename="C:\xds\demo\src\favicon.png"
       inkscape:export-xdpi="14.4"
       inkscape:export-ydpi="14.4"
       sodipodi:nodetypes="csccssssssssssccsssscsscssscsssssccsccsssssssssss" />
    <rect
       style="color:#000000;fill:none;stroke:none;stroke-width:20;marker:none;visibility:visible;display:inline;overflow:visible;enable-background:accumulate"
       id="rect3223"
       width="100"
       height="100"
       x="246.65535"
       y="408.758"
       ry="0"
       inkscape:export-filename="C:\xds\demo\src\favicon.png"
       inkscape:export-xdpi="14.4"
       inkscape:export-ydpi="14.4" />
  </g>
</svg>
