<?xml version="1.0" encoding="UTF-8" standalone="no"?>
<!-- Created with Inkscape (http://www.inkscape.org/) -->

<svg
   xmlns:dc="http://purl.org/dc/elements/1.1/"
   xmlns:cc="http://creativecommons.org/ns#"
   xmlns:rdf="http://www.w3.org/1999/02/22-rdf-syntax-ns#"
   xmlns:svg="http://www.w3.org/2000/svg"
   xmlns="http://www.w3.org/2000/svg"
   xmlns:sodipodi="http://sodipodi.sourceforge.net/DTD/sodipodi-0.dtd"
   xmlns:inkscape="http://www.inkscape.org/namespaces/inkscape"
   width="744.09448819"
   height="1052.3622047"
   id="svg2"
   version="1.1"
   inkscape:version="0.91 r13725"
   inkscape:export-filename="C:\xds\demo\favicon.png"
   inkscape:export-xdpi="4.3099999"
   inkscape:export-ydpi="4.3099999"
   sodipodi:docname="logo.svg">
  <defs
     id="defs4" />
  <sodipodi:namedview
     id="base"
     pagecolor="#ffffff"
     bordercolor="#666666"
     borderopacity="1.0"
     inkscape:pageopacity="0.0"
     inkscape:pageshadow="2"
     inkscape:zoom="0.63499076"
     inkscape:cx="-246.19275"
     inkscape:cy="361.77417"
     inkscape:document-units="px"
     inkscape:current-layer="layer1"
     showgrid="false"
     inkscape:window-width="1920"
     inkscape:window-height="1018"
     inkscape:window-x="1592"
     inkscape:window-y="-8"
     inkscape:window-maximized="1" />
  <metadata
     id="metadata7">
    <rdf:RDF>
      <cc:Work
         rdf:about="">
        <dc:format>image/svg+xml</dc:format>
        <dc:type
           rdf:resource="http://purl.org/dc/dcmitype/StillImage" />
        <dc:title></dc:title>
      </cc:Work>
    </rdf:RDF>
  </metadata>
  <g
     inkscape:label="Layer 1"
     inkscape:groupmode="layer"
     id="layer1">
    <path
       inkscape:connector-curvature="0"
       id="path3901"
       d="m 39.16948,1052.271 c -5.35987,-0.9948 -8.68333,-2.6707 -12.21448,-6.1592 -2.52609,-2.4956 -3.10457,-3.5859 -3.10759,-5.8572 -0.002,-1.3341 0.0886,-1.715 0.66206,-2.791 1.43415,-2.6907 4.25614,-3.8783 7.18963,-3.0255 1.02136,0.2969 1.49584,0.6239 3.02874,2.0869 2.05331,1.9597 2.69288,2.4311 3.97921,2.933 4.78273,1.8659 10.34352,-0.6392 12.02243,-5.416 0.21469,-0.6108 0.49799,-1.996 0.62957,-3.0781 0.35956,-2.9572 0.92007,-4.8711 2.18297,-7.4538 1.89137,-3.8679 4.34255,-6.5808 7.98389,-8.8363 5.91546,-3.664 8.90395,-6.7551 11.32053,-11.7093 1.83922,-3.77053 2.58472,-6.5881 2.78901,-10.54098 0.58615,-11.34093 -6.2864,-21.87744 -16.94345,-25.97655 -3.45635,-1.32944 -5.33907,-1.65766 -9.55133,-1.66506 -3.41874,-0.006 -3.99394,0.0473 -6.04022,0.55975 -4.93043,1.23476 -8.75667,3.34509 -12.35595,6.81481 -2.26861,2.18694 -4.11742,4.76465 -5.45957,7.61196 -1.75857,3.73078 -1.96548,4.06471 -3.01263,4.86223 -3.23945,2.46718 -7.9055,1.27522 -9.44661,-2.41315 -0.62731,-1.50137 -0.62535,-3.01833 0.006,-4.7582 1.91497,-5.27596 5.09542,-10.05545 9.56897,-14.37996 5.60174,-5.4151 12.05409,-8.6718 20.23624,-10.21387 3.56524,-0.67193 9.38738,-0.67073 13.01111,0.003 11.3031,2.10058 20.35492,8.15475 26.40447,17.66026 2.02427,3.1807 3.58319,6.81322 4.82121,11.2342 0.64472,2.3023 0.64688,2.32788 0.73313,8.669 0.0808,5.9377 0.056,6.50205 -0.37293,8.50173 -1.6491,7.68813 -5.12357,14.11873 -10.58012,19.58173 -2.4987,2.5017 -4.69655,4.2307 -7.61894,5.9938 -3.69485,2.2291 -4.85929,4.0255 -5.52038,8.5162 -0.51971,3.5303 -0.86518,4.7654 -1.98622,7.1012 -2.7427,5.7145 -8.11442,10.1301 -14.18119,11.6571 -1.72525,0.4342 -6.82641,0.7384 -8.17771,0.4876 z m 24.35833,-56.36739 c -1.94101,-0.57809 -2.69677,-1.73433 -2.96132,-4.53051 -0.10645,-1.12472 -0.34077,-2.4884 -0.52079,-3.03041 -1.29254,-3.8915 -4.48024,-6.73626 -8.55058,-7.63074 -5.04078,-1.10773 -10.2467,1.57371 -12.53479,6.45639 -1.26288,2.6949 -2.26831,3.51589 -4.30574,3.51589 -2.58456,0 -4.56671,-2.53842 -3.9073,-5.00385 0.43176,-1.61432 1.90674,-4.3387 3.30916,-6.11226 2.18799,-2.76703 5.74438,-5.24731 9.16589,-6.39245 3.22967,-1.0809 7.49771,-1.1736 10.98104,-0.23846 3.7613,1.00976 6.29168,2.48956 9.05205,5.29377 2.68653,2.7292 4.46389,6.12779 5.17997,9.90493 0.76771,4.04941 0.19836,6.45686 -1.76923,7.48107 -0.76295,0.39714 -2.29691,0.53724 -3.13836,0.28663 z"
       style="fill:#ba214d;fill-opacity:1"
       inkscape:export-filename="C:\xds\demo\src\favicon.png"
       inkscape:export-xdpi="14.4"
       inkscape:export-ydpi="14.4"
       sodipodi:nodetypes="csccssssssssssccsssscsscssscsssssccsccsssssssssss" />
  </g>
</svg>
